<svg width="280" height="280" viewBox="0 0 280 280" fill="none" xmlns="http://www.w3.org/2000/svg">
<path d="M280 0H0V280H280V0Z" fill="white"/>
<path d="M218.728 212.784C213.308 218.369 208.459 221.654 204.746 224.134C168.534 248.312 127.141 241.341 114.343 238.962C93.6952 235.119 76.2657 232.408 61.2906 218.879C27.2627 188.135 28.9178 124 54.9193 84.2762C58.0023 79.5653 83.9646 41.0815 125.448 35.6589C126.462 35.526 127.219 35.4506 127.882 35.3804C134.297 34.7011 174.067 31.1147 206.493 58.2815C211.134 62.1706 218.604 69.1849 225.531 79.8823C250.859 118.999 250.939 179.583 218.728 212.784Z" fill="#F4F7FA"/>
<path d="M173.145 50.388L62.3456 46.9745C56.9765 46.8084 52.5977 50.7216 52.5977 55.7156V213.591C52.5977 218.584 56.975 222.302 62.3456 221.897L173.145 213.537C177.786 213.187 181.529 209.172 181.529 204.567V58.982C181.529 54.379 177.786 50.5307 173.145 50.388Z" fill="url(#paint0_linear_12971_933)"/>
<g style="mix-blend-mode:soft-light" opacity="0.74">
<path d="M55.7231 214.312V54.8551C55.7231 51.9811 58.2409 49.723 61.336 49.8151L174.022 53.0906C176.699 53.166 178.862 55.3872 178.862 58.0468V205.623C178.862 208.283 176.699 210.599 174.022 210.795L61.336 219.101C58.2409 219.33 55.7231 217.186 55.7231 214.312Z" fill="white"/>
</g>
<path d="M173.145 50.388L62.3456 46.9745C56.9765 46.8084 52.5977 50.7216 52.5977 55.7156V62.2016L181.529 64.9654V58.9843C181.529 54.379 177.786 50.5307 173.145 50.388Z" fill="url(#paint1_linear_12971_933)"/>
<path d="M69.9064 55.2876C69.9064 56.905 68.4981 58.182 66.7577 58.1397C65.0173 58.0975 63.5969 56.748 63.5969 55.1208C63.5969 53.4937 65.0135 52.2205 66.7577 52.268C68.5018 52.3156 69.9064 53.6703 69.9064 55.2876Z" fill="white"/>
<path d="M80.8695 55.5713C80.8695 57.1774 79.48 58.4468 77.7631 58.4053C76.0461 58.3638 74.6416 57.0226 74.6416 55.4098C74.6416 53.797 76.0393 52.5291 77.7601 52.5766C79.4808 52.6242 80.8695 53.9623 80.8695 55.5713Z" fill="white"/>
<path d="M91.686 55.849C91.686 57.4445 90.3154 58.7048 88.6211 58.6641C86.9267 58.6233 85.5441 57.292 85.5441 55.6898C85.5441 54.0875 86.9229 52.8279 88.6211 52.8747C90.3192 52.9215 91.686 54.255 91.686 55.849Z" fill="white"/>
<path d="M115.558 95.1744L69.954 95.0989C69.2106 95.0989 68.6075 94.5442 68.6075 93.8627V90.9608C68.6075 90.2816 69.2113 89.7299 69.954 89.7344L115.558 89.9903C116.251 89.9903 116.812 90.5299 116.812 91.1865V93.9835C116.812 94.6416 116.251 95.1752 115.558 95.1744Z" fill="white"/>
<path d="M71.7223 96.1946L75.643 110.573C75.8906 111.483 76.7796 112.111 77.7977 112.1L108.156 111.759C109.127 111.748 109.972 111.116 110.208 110.225L113.906 96.227L71.7223 96.1946ZM82.9766 109.73C82.9766 110.301 82.477 110.768 81.8596 110.775L80.794 110.785C80.1759 110.792 79.6732 110.333 79.6732 109.761V98.6172C79.6732 98.0451 80.1759 97.5817 80.794 97.5817H81.8596C82.477 97.5817 82.9766 98.0444 82.9766 98.6142V109.73ZM88.9011 109.674C88.9011 110.242 88.406 110.708 87.7947 110.714L86.7381 110.724C86.1245 110.731 85.6272 110.271 85.6272 109.705V98.6112C85.6272 98.0414 86.1245 97.5802 86.7381 97.5795H87.7947C88.406 97.5795 88.9011 98.0399 88.9011 98.6074V109.674ZM94.7736 109.619C94.7736 110.184 94.2823 110.647 93.6762 110.653L92.6294 110.664C92.0257 110.67 91.5291 110.216 91.5291 109.649V98.6044C91.5291 98.0376 92.0219 97.578 92.6294 97.578H93.6762C94.28 97.578 94.7736 98.0361 94.7736 98.6014V109.619ZM100.593 109.563C100.593 110.126 100.106 110.587 99.5056 110.594L98.4687 110.604C97.8649 110.61 97.3774 110.158 97.3774 109.594V98.5984C97.3774 98.0346 97.8664 97.5765 98.4687 97.5765H99.5056C100.109 97.5765 100.593 98.0293 100.593 98.5953V109.563ZM106.361 109.508C106.361 110.069 105.878 110.528 105.284 110.534L104.255 110.545C103.659 110.551 103.174 110.1 103.174 109.539V98.5953C103.174 98.0338 103.659 97.578 104.255 97.578H105.283C105.878 97.578 106.36 98.0308 106.36 98.5923L106.361 109.508Z" fill="white"/>
<path d="M76.8462 88.3126C76.5026 88.5786 76.0731 88.7089 75.6397 88.6785C75.2062 88.6482 74.7991 88.4594 74.496 88.1481C74.3527 88.0012 74.2424 87.8255 74.1722 87.6327C74.102 87.4399 74.0736 87.2344 74.0889 87.0298C74.1041 86.8252 74.1627 86.6262 74.2608 86.4459C74.3588 86.2657 74.494 86.1083 74.6575 85.9843C75.0014 85.719 75.431 85.5896 75.8643 85.6206C76.2975 85.6517 76.7043 85.841 77.0069 86.1526C77.1494 86.2995 77.2592 86.4749 77.329 86.6673C77.3988 86.8597 77.4271 87.0647 77.4119 87.2688C77.3967 87.4728 77.3384 87.6714 77.2409 87.8513C77.1434 88.0313 77.0088 88.1885 76.8462 88.3126V88.3126Z" fill="white"/>
<path d="M91.4808 74.65C91.2543 74.4025 90.7796 74.4289 90.4242 74.7104L75.9841 86.1776C75.6211 86.4652 75.5169 86.9006 75.7509 87.1497C75.9849 87.3987 76.4679 87.3663 76.8301 87.0788L91.2521 75.607C91.6076 75.3277 91.7087 74.8983 91.4808 74.65Z" fill="white"/>
<path d="M109.064 88.5281C109.384 88.7912 109.791 88.924 110.204 88.8999C110.618 88.8759 111.007 88.6967 111.294 88.3983C111.429 88.2535 111.533 88.0823 111.599 87.8954C111.666 87.7085 111.692 87.5099 111.678 87.3122C111.664 87.1144 111.609 86.9217 111.517 86.7461C111.425 86.5706 111.297 86.4159 111.143 86.2919C110.824 86.0282 110.417 85.8947 110.003 85.918C109.59 85.9414 109.201 86.12 108.913 86.418C108.777 86.5628 108.672 86.7342 108.606 86.9215C108.539 87.1088 108.512 87.3078 108.526 87.5061C108.54 87.7044 108.596 87.8976 108.688 88.0735C108.781 88.2494 108.909 88.4042 109.064 88.5281V88.5281Z" fill="white"/>
<path d="M94.8212 74.7079C95.0477 74.4679 95.5178 74.5109 95.8695 74.8037L109.882 86.4596C110.226 86.7456 110.325 87.1705 110.103 87.4097C109.882 87.649 109.424 87.6113 109.078 87.3252L95.0477 75.6717C94.6952 75.3788 94.5941 74.9471 94.8212 74.7079Z" fill="white"/>
<path d="M168.66 81.464L121.634 80.8632V75.0104L168.66 75.8255V81.464Z" fill="white"/>
<path d="M168.66 91.3359L121.634 91.1118V85.2582L168.66 85.6974V91.3359Z" fill="white"/>
<path d="M168.66 101.207L121.634 101.36V95.5063L168.66 95.569V101.207Z" fill="white"/>
<path d="M168.66 111.08L121.634 111.608V105.755L168.66 105.441V111.08Z" fill="white"/>
<path d="M151.991 127.339L68.6075 129.347V123.251L151.991 121.624V127.339Z" fill="white"/>
<path d="M151.991 137.344L68.6075 140.02V133.924L151.991 131.629V137.344Z" fill="white"/>
<path d="M151.991 147.349L68.6075 150.692V144.596L151.991 141.634V147.349Z" fill="white"/>
<path d="M151.991 157.355L68.6075 161.364V155.268L151.991 151.64V157.355Z" fill="white"/>
<path d="M168.66 126.937L157.692 127.201V121.513L168.66 121.299V126.937Z" fill="white"/>
<path d="M168.66 136.809L157.692 137.161V131.473L168.66 131.171V136.809Z" fill="white"/>
<path d="M168.66 146.681L157.692 147.121V141.432L168.66 141.042V146.681Z" fill="white"/>
<path d="M168.66 156.553L157.692 157.08V151.392L168.66 150.914V156.553Z" fill="white"/>
<path d="M151.991 173.591L68.6075 178.683V172.587L151.991 167.876V173.591Z" fill="white"/>
<path d="M151.991 183.596L68.6075 189.356V183.26L151.991 177.882V183.596Z" fill="white"/>
<path d="M151.991 193.601L68.6075 200.027V193.931L151.991 187.886V193.601Z" fill="white"/>
<path d="M151.991 203.606L68.6075 210.7V204.604L151.991 197.891V203.606Z" fill="white"/>
<path d="M168.66 172.573L157.692 173.243V167.554L168.66 166.934V172.573Z" fill="white"/>
<path d="M168.66 182.445L157.692 183.202V177.513L168.66 176.806V182.445Z" fill="url(#paint2_linear_12971_933)"/>
<path d="M168.66 192.316L157.692 193.161V187.473L168.66 186.678V192.316Z" fill="url(#paint3_linear_12971_933)"/>
<path d="M168.66 202.188L157.692 203.121V197.432L168.66 196.549V202.188Z" fill="url(#paint4_linear_12971_933)"/>
<path d="M187.768 178.02L162.759 174.962V138.076L187.768 133.338V178.02Z" fill="url(#paint5_linear_12971_933)"/>
<path d="M218.275 176.076L187.768 178.02V133.338L218.275 137.55V176.076Z" fill="url(#paint6_linear_12971_933)"/>
<g style="mix-blend-mode:soft-light">
<path d="M199.268 134.926V153.144L209.424 153.953V136.328L199.268 134.926Z" fill="white"/>
</g>
<path d="M229.235 231.32L182.839 234.583V166.63L229.235 169.893V231.32Z" fill="url(#paint7_linear_12971_933)"/>
<path d="M182.839 234.583L144.803 229.933V170.968L182.839 166.63V234.583Z" fill="url(#paint8_linear_12971_933)"/>
<g style="mix-blend-mode:soft-light">
<path d="M199.263 167.785V195.358H214.809V168.878L199.263 167.785Z" fill="white"/>
</g>
<path d="M112.774 144.744C114.916 142.457 108.985 133.862 105.81 130.096C103.036 126.806 100.186 123.424 96.6845 123.853C93.6112 124.23 90.6203 127.47 90.4414 130.577C89.9622 138.934 109.727 148 112.774 144.744Z" fill="url(#paint9_linear_12971_933)"/>
<path d="M87.0469 233.06C86.6439 233.388 86.5691 234.207 86.5186 234.742C86.4967 234.981 86.4861 235.101 86.5133 235.186C86.708 235.801 87.9027 235.865 89.7759 236.057C92.7358 236.359 93.6166 236.592 93.8513 236.152C94.0686 235.74 93.5434 235.063 93.4837 234.989C93.166 234.589 92.7751 234.442 92.0204 234.194C90.6242 233.734 89.6808 233.483 89.3947 233.407C87.6099 232.931 87.3118 232.845 87.0469 233.06Z" fill="url(#paint10_linear_12971_933)"/>
<path d="M88.8076 230.356L89.1035 233.729C89.0197 233.892 88.0167 234.381 87.2205 233.962L86.4597 230.646L88.8076 230.356Z" fill="url(#paint11_linear_12971_933)"/>
<path d="M110.523 232.627C110.04 233.161 109.93 234.144 110.35 234.628C110.771 235.112 111.384 234.747 113.143 234.8C115.029 234.856 115.523 235.302 116.806 234.951C117.324 234.808 118.24 234.46 118.222 234.091C118.21 233.83 117.743 233.696 116.184 233.174C113.976 232.435 113.985 232.394 113.516 232.316C112.345 232.118 111.162 231.925 110.523 232.627Z" fill="url(#paint12_linear_12971_933)"/>
<path d="M111.733 229.549L112.679 232.697C112.604 232.866 111.645 233.43 110.82 233.075L109.414 230.018L111.733 229.549Z" fill="url(#paint13_linear_12971_933)"/>
<path d="M103.321 160.578C103.623 184.162 106.753 207.625 112.642 230.465L109.02 231.44C105.955 228.582 102.09 224.084 100.224 217.728C99.0664 213.783 99.4521 211.755 98.7147 206.903C97.5456 199.177 95.1774 195.13 92.7298 188.899C90.5298 183.3 87.9298 175.087 86.5359 164.1L103.321 160.578Z" fill="url(#paint14_linear_12971_933)"/>
<path d="M92.4181 159.569C91.6784 173.029 91.0747 186.737 90.6067 200.693C90.2611 211.164 90.005 221.501 89.8384 231.704L86.1366 232.161C84.442 229.013 83.1452 225.667 82.2762 222.199C80.9592 216.916 81.2641 213.779 80.686 208.304C80.0377 202.163 79.0966 200.826 77.4287 193.079C74.0461 177.359 72.3532 169.497 76.1298 164.604C77.3585 163.019 81.1985 159.038 92.4181 159.569Z" fill="url(#paint15_linear_12971_933)"/>
<path d="M74.4362 125.74C78.4528 124.609 82.5805 123.92 86.7464 123.683C94.1427 123.265 97.8408 123.057 100.463 124.815C106.516 128.884 101.829 138.274 104.307 161.55C104.661 164.871 104.74 168.222 104.997 171.555C105.421 177.073 105.518 177.373 105.134 177.932C102.726 181.439 93.7419 176.15 80.5751 178.241C73.2075 179.411 69.8664 182.106 67.8483 180.162C65.4943 177.897 67.5132 171.797 69.2513 166.549C71.246 160.523 72.4785 160.446 73.6113 155.907C74.7947 151.165 74.0785 148.723 73.8943 141.244C73.7717 136.07 73.9527 130.893 74.4362 125.74V125.74Z" fill="url(#paint16_linear_12971_933)"/>
<g style="mix-blend-mode:multiply" opacity="0.3">
<path style="mix-blend-mode:multiply" opacity="0.3" d="M92.3419 169.438C88.9004 169.168 86.6671 171.114 83.6966 169.598C79.6211 167.519 78.3139 161.05 78.5736 156.471C78.9683 149.514 82.9404 147.68 82.2558 143.184C81.886 140.752 80.1494 137.523 73.9154 134.224C73.8324 137.001 73.8483 139.367 73.8943 141.243C74.0785 148.722 74.7947 151.164 73.6113 155.907C72.4792 160.445 71.246 160.522 69.2513 166.548C67.5155 171.796 65.4943 177.894 67.8483 180.161C69.8664 182.105 73.2068 179.406 80.5751 178.24C91.9207 176.439 100.155 180.112 103.758 178.919C99.4045 171.728 95.4558 169.682 92.3419 169.438Z" fill="url(#paint17_linear_12971_933)"/>
</g>
<path d="M79.1307 126.217C76.6726 124.197 71.7307 126.483 70.4092 127.094C63.0424 130.502 56.4273 139.685 58.0665 149.389C58.3125 150.845 59.4522 157.653 65.2167 160.952C70.4182 163.928 77.4432 163.162 83.0681 158.947L85.3753 156.9C86.13 156.082 86.8867 155.265 87.6455 154.446C85.86 152.96 83.8071 151.829 81.5971 151.114C77.856 149.906 75.1315 152.073 73.3956 150.426C72.1979 149.29 72.1948 147.281 72.4899 146.065C73.0862 143.613 75.2484 142.923 77.0522 141.182C81.2922 137.093 82.0734 128.635 79.1307 126.217Z" fill="url(#paint18_linear_12971_933)"/>
<path d="M114.453 157.898L81.5079 157.406L90.2687 161.634L114.537 160.046L114.453 157.898Z" fill="url(#paint19_linear_12971_933)"/>
<path d="M80.345 158.281C80.345 158.582 80.4376 158.876 80.6103 159.123C80.783 159.369 81.0274 159.557 81.3102 159.66L91.8369 163.786L91.8852 160.925L81.5095 157.406C81.3737 157.367 81.2307 157.359 81.0917 157.385C80.9527 157.41 80.8215 157.468 80.7085 157.553C80.5955 157.638 80.5039 157.748 80.4408 157.874C80.3777 158.001 80.3449 158.14 80.345 158.281V158.281Z" fill="url(#paint20_linear_12971_933)"/>
<path d="M85.4181 156.332C85.2158 156.288 86.3992 153.922 87.3351 154.195C88.2709 154.468 92.8249 157.109 93.2393 158.195L93.6544 159.282C93.6544 159.282 91.6657 159.438 90.4324 159.023C89.1992 158.609 87.0619 156.699 85.4181 156.332Z" fill="url(#paint21_linear_12971_933)"/>
<path d="M92.7592 140.851L90.4369 161.995C90.3569 162.724 91.3781 163.811 92.1109 163.777L126.178 161.685C126.45 161.672 126.709 161.567 126.913 161.387C127.117 161.207 127.253 160.962 127.299 160.694L131.574 140.273C131.702 139.53 130.367 138.764 129.612 138.783L93.9139 139.787C93.6254 139.795 93.3495 139.907 93.1372 140.102C92.9249 140.298 92.7906 140.564 92.7592 140.851V140.851Z" fill="url(#paint22_linear_12971_933)"/>
<path d="M93.538 141.467L91.215 162.611C91.1962 162.783 91.2148 162.957 91.2695 163.12C91.3242 163.284 91.4137 163.434 91.5319 163.56C91.6501 163.686 91.7942 163.784 91.9542 163.849C92.1142 163.914 92.2864 163.943 92.4588 163.935L126.957 162.302C127.229 162.289 127.488 162.184 127.692 162.004C127.895 161.823 128.032 161.579 128.078 161.311L131.602 140.796C131.632 140.622 131.623 140.444 131.576 140.274C131.528 140.104 131.444 139.946 131.328 139.813C131.213 139.679 131.069 139.573 130.908 139.502C130.746 139.43 130.571 139.396 130.395 139.4L94.6965 140.404C94.4074 140.411 94.1306 140.522 93.9175 140.718C93.7044 140.913 93.5696 141.18 93.538 141.467V141.467Z" fill="url(#paint23_linear_12971_933)"/>
<path style="mix-blend-mode:multiply" opacity="0.3" d="M113.795 157.347C110.783 156.071 111.846 153.636 108.285 150.602C103.593 146.602 98.8098 148.338 97.1358 145.234C96.6143 144.268 96.3652 142.765 97.2732 140.328L94.6883 140.404C94.4 140.412 94.1245 140.524 93.9125 140.72C93.7006 140.915 93.5665 141.181 93.5351 141.467L91.2151 162.612C91.1963 162.783 91.215 162.957 91.2698 163.12C91.3245 163.284 91.4141 163.434 91.5322 163.56C91.6504 163.685 91.7944 163.784 91.9544 163.849C92.1143 163.914 92.2864 163.943 92.4588 163.935L126.957 162.302C127.229 162.289 127.488 162.184 127.692 162.004C127.895 161.824 128.032 161.579 128.078 161.311L128.564 158.48C127.392 157.82 126.124 157.345 124.807 157.072C119.746 156.045 117.263 158.818 113.795 157.347Z" fill="url(#paint24_linear_12971_933)"/>
<path d="M129.132 159.344C129.145 159.305 129.149 159.263 129.144 159.222C129.138 159.181 129.123 159.141 129.1 159.107C129.076 159.072 129.045 159.044 129.009 159.024C128.973 159.003 128.932 158.992 128.891 158.99C128.161 158.953 126.47 158.938 125.537 159.509C124.324 160.252 122.756 161.608 124.076 162.292L125.309 162.93C125.365 162.959 125.429 162.968 125.49 162.955C125.928 162.859 127.772 162.449 127.974 162.351C128.155 162.255 128.858 160.169 129.132 159.344Z" fill="url(#paint25_linear_12971_933)"/>
<path d="M87.2989 115.602C87.3183 117.321 87.1649 119.037 86.8408 120.725C86.5759 122.09 86.3879 122.442 86.1411 122.728C85.7744 123.158 85.2181 123.52 82.0755 124.299C80.3653 124.723 80.1457 124.712 80.1079 124.881C79.9238 125.712 84.5864 128.531 89.4038 127.851C92.3525 127.435 95.0347 125.752 94.8702 124.869C94.7057 123.985 91.7593 124.457 90.8815 122.849C90.271 121.73 90.957 120.142 91.7646 118.826C90.9804 117.359 88.0823 117.07 87.2989 115.602Z" fill="url(#paint26_linear_12971_933)"/>
<path d="M92.7707 116.469C93.4665 115.545 93.5095 113.931 92.708 112.911C92.0182 112.033 90.9321 111.908 90.2823 111.833C88.3955 111.616 86.0219 112.402 85.1955 114.135C84.7057 115.163 85.7653 117.297 85.9313 117.682C86.1193 118.116 86.4597 118.266 86.7751 118.593C87.2114 119.046 87.8951 119.772 89.0114 120.982C89.1168 120.544 89.26 120.117 89.4393 119.704C89.672 119.167 89.9726 118.663 90.3337 118.202C91.3156 117.003 92.111 117.345 92.7707 116.469Z" fill="url(#paint27_linear_12971_933)"/>
<path d="M87.4196 119.963C87.4196 119.963 88.6573 121.994 91.1229 121.834C93.3305 121.69 93.6535 116.741 92.2437 115.69C91.7735 115.34 90.8309 115.194 90.0656 115.408C89.6128 115.535 89.4618 115.723 88.7162 115.916C88.0309 116.094 87.8369 116.018 87.6301 116.192C87.3712 116.41 87.1818 116.947 87.6143 118.391C87.1931 117.965 86.6875 117.801 86.3312 117.97C86.2089 118.037 86.1074 118.136 86.0377 118.257C85.7267 118.822 86.2429 119.547 87.4196 119.963Z" fill="url(#paint28_linear_12971_933)"/>
<path d="M87.5305 115.896C87.6369 115.975 87.3116 116.372 87.2875 116.935C87.24 118.026 88.3441 119.335 89.4709 119.446C90.1373 119.512 90.3207 119.11 91.4219 118.993C91.9587 118.938 92.5009 118.97 93.0279 119.086C93.3736 120.283 93.0483 121.476 92.2483 122.03C91.3871 122.626 90.286 122.264 89.8271 122.113C89.52 122.012 88.5335 121.69 88.0158 120.786C87.4784 119.843 88.0052 119.276 87.3894 118.639C87.0792 118.317 86.6709 118.178 86.2739 117.556C86.1875 117.422 86.1118 117.282 86.0475 117.136C86.6226 116.534 87.3766 115.781 87.5305 115.896Z" fill="url(#paint29_linear_12971_933)"/>
<path d="M92.2264 119.531C92.2264 119.531 91.7501 119.78 90.926 119.734C90.886 119.734 90.8414 119.743 90.8369 119.764C90.818 119.839 91.3464 120.192 91.8331 120.055C92.1788 119.958 92.4482 119.631 92.4014 119.547C92.3818 119.512 92.3018 119.517 92.2264 119.531Z" fill="url(#paint30_linear_12971_933)"/>
<path d="M141.368 233.711C139.609 233.572 137.359 233.083 135.2 231.674C132.86 230.146 129.82 227.006 130.614 225.028C130.911 224.29 131.764 223.658 132.515 223.718C133.624 223.807 133.753 225.347 135.678 227.022C136.035 227.332 137.874 228.932 138.789 228.393C139.241 228.125 139.378 227.382 139.303 226.817C139.087 225.165 137.07 224.911 135.131 223.123C133.169 221.312 131.527 218.148 132.463 216.009C133.002 214.781 134.426 213.811 135.361 214.083C135.761 214.2 136.015 214.527 137.229 217.151C138.226 219.304 138.448 219.931 139.091 220.136C139.752 220.345 140.78 220.082 141.171 219.431C142.189 217.733 137.789 215.228 137.39 210.477C137.211 208.349 137.786 205.194 139.714 204.515C141.017 204.059 142.873 204.757 143.545 205.949C144.149 207.027 143.414 207.836 143.876 210.258C144.016 210.993 144.304 212.505 144.912 212.584C145.626 212.677 146.426 210.749 146.61 210.28C148 206.746 146.406 204.929 147.717 203.213C148.739 201.875 150.962 201.338 152.725 202.013C154.266 202.605 155.5 204.142 155.582 205.736C155.666 207.357 154.299 208.971 151.575 212.199C150.281 213.73 149.253 214.765 149.311 216.286C149.339 217.028 149.633 218.071 150.165 218.166C151.337 218.376 151.914 213.655 154.693 212.926C156.115 212.553 157.883 213.286 158.66 214.568C159.611 216.139 158.974 218.366 157.778 219.536C156.218 221.065 154.619 219.903 151.684 221.545C150.381 222.272 148.335 223.821 148.635 225.101C148.765 225.659 149.349 226.205 149.993 226.277C151.427 226.44 151.906 224.085 154.22 223.049C155.885 222.303 158.187 222.384 158.734 223.323C159.506 224.648 156.764 227.658 155.306 228.988C153.539 230.6 149.382 233.648 141.368 233.711Z" fill="url(#paint31_linear_12971_933)"/>
<path opacity="0.5" d="M142.158 232.956C141.925 229.017 144.535 220.99 146.434 217.196C148.292 213.483 150.069 207.612 150.087 207.551L150.203 207.586C150.186 207.645 148.404 213.529 146.542 217.246C144.649 221.029 142.047 229.025 142.278 232.944L142.158 232.956Z" fill="white"/>
<path d="M137.223 234.226C135.898 232.387 133.955 229.069 133.608 224.631C133.464 222.802 133.183 219.23 135.369 216.149C136.458 214.614 138.765 212.343 140.328 212.998C141.332 213.419 141.955 215.023 141.672 216.243C141.389 217.463 140.347 217.586 139.216 219.672C138.797 220.444 138.318 221.351 138.687 221.861C138.995 222.289 139.838 222.367 140.47 222.11C141.776 221.582 141.367 219.955 142.78 218.789C143.783 217.959 145.457 217.571 146.176 218.25C146.802 218.839 146.693 220.217 146.14 221.135C145.252 222.606 143.661 222.174 142.624 223.782C142.164 224.495 141.837 225.573 142.239 225.998C142.698 226.484 144.05 226.064 144.914 225.527C146.057 224.82 146.099 224.066 146.852 223.971C147.691 223.866 148.739 224.665 148.905 225.549C149.131 226.788 147.615 228.124 146.414 228.705C144.874 229.447 143.729 229.011 142.977 230.026C142.7 230.399 142.448 231.007 142.675 231.377C142.998 231.905 144.166 231.729 144.939 231.613C146.826 231.333 147.345 230.648 148.021 230.981C148.697 231.314 149.059 232.454 148.763 233.252C148.598 233.695 148.104 234.384 145.655 234.812C143.942 235.112 141.062 235.324 137.223 234.226Z" fill="url(#paint32_linear_12971_933)"/>
<path d="M231.886 97.4973C231.886 113.761 218.78 127.822 202.564 128.906C186.292 129.994 173.061 117.612 173.061 101.248C173.061 84.883 186.292 70.8136 202.566 69.8271C218.78 68.843 231.886 81.2332 231.886 97.4973Z" fill="url(#paint33_linear_12971_933)"/>
<path d="M201.528 115.351C200.253 115.435 199.066 114.842 198.406 113.781L187.321 95.9767C186.282 94.3088 186.842 92.0227 188.571 90.8725C190.3 89.7224 192.54 90.1435 193.578 91.8107L201.268 104.17L211.414 83.5065C212.325 81.6514 214.512 80.8009 216.299 81.6054C218.086 82.4099 218.796 84.5631 217.884 86.4167L204.772 113.142C204.48 113.742 204.041 114.258 203.496 114.642C202.951 115.026 202.318 115.267 201.655 115.34C201.614 115.345 201.571 115.349 201.528 115.351Z" fill="white"/>
<defs>
<linearGradient id="paint0_linear_12971_933" x1="52.5977" y1="134.448" x2="181.529" y2="134.448" gradientUnits="userSpaceOnUse">
<stop stop-color="#FF9085"/>
<stop offset="1" stop-color="#FB6FBB"/>
</linearGradient>
<linearGradient id="paint1_linear_12971_933" x1="117.749" y1="53.9156" x2="106.737" y2="153.447" gradientUnits="userSpaceOnUse">
<stop stop-color="#40447E"/>
<stop offset="1" stop-color="#3C3B6B"/>
</linearGradient>
<linearGradient id="paint2_linear_12971_933" x1="80.104" y1="180.004" x2="380.894" y2="180.004" gradientUnits="userSpaceOnUse">
<stop stop-color="#AA80F9"/>
<stop offset="1" stop-color="#6165D7"/>
</linearGradient>
<linearGradient id="paint3_linear_12971_933" x1="11799.2" y1="16502.7" x2="55513" y2="16502.7" gradientUnits="userSpaceOnUse">
<stop stop-color="#AA80F9"/>
<stop offset="1" stop-color="#6165D7"/>
</linearGradient>
<linearGradient id="paint4_linear_12971_933" x1="11799.2" y1="17598.2" x2="55513" y2="17598.2" gradientUnits="userSpaceOnUse">
<stop stop-color="#AA80F9"/>
<stop offset="1" stop-color="#6165D7"/>
</linearGradient>
<linearGradient id="paint5_linear_12971_933" x1="188.081" y1="136.402" x2="160.632" y2="182.758" gradientUnits="userSpaceOnUse">
<stop stop-color="#FFC444"/>
<stop offset="0.31" stop-color="#FBA94A"/>
<stop offset="1" stop-color="#F36F56"/>
</linearGradient>
<linearGradient id="paint6_linear_12971_933" x1="178569" y1="81553.8" x2="159539" y2="103497" gradientUnits="userSpaceOnUse">
<stop stop-color="#FFC444"/>
<stop offset="0.31" stop-color="#FBA94A"/>
<stop offset="1" stop-color="#F36F56"/>
</linearGradient>
<linearGradient id="paint7_linear_12971_933" x1="277345" y1="153907" x2="231777" y2="206453" gradientUnits="userSpaceOnUse">
<stop stop-color="#FFC444"/>
<stop offset="0.31" stop-color="#FBA94A"/>
<stop offset="1" stop-color="#F36F56"/>
</linearGradient>
<linearGradient id="paint8_linear_12971_933" x1="207178" y1="154054" x2="164380" y2="194514" gradientUnits="userSpaceOnUse">
<stop stop-color="#FFC444"/>
<stop offset="0.31" stop-color="#FBA94A"/>
<stop offset="1" stop-color="#F36F56"/>
</linearGradient>
<linearGradient id="paint9_linear_12971_933" x1="-74169.1" y1="40643.7" x2="-68366.6" y2="70003.6" gradientUnits="userSpaceOnUse">
<stop stop-color="#AA80F9"/>
<stop offset="1" stop-color="#6165D7"/>
</linearGradient>
<linearGradient id="paint10_linear_12971_933" x1="93.9393" y1="235.131" x2="86.5635" y2="235.352" gradientUnits="userSpaceOnUse">
<stop stop-color="#444B8C"/>
<stop offset="1" stop-color="#26264F"/>
</linearGradient>
<linearGradient id="paint11_linear_12971_933" x1="89.1035" y1="232.242" x2="86.459" y2="232.242" gradientUnits="userSpaceOnUse">
<stop stop-color="#FFC444"/>
<stop offset="1" stop-color="#F36F56"/>
</linearGradient>
<linearGradient id="paint12_linear_12971_933" x1="-44694.8" y1="18660.3" x2="-45505.4" y2="18888.3" gradientUnits="userSpaceOnUse">
<stop stop-color="#444B8C"/>
<stop offset="1" stop-color="#26264F"/>
</linearGradient>
<linearGradient id="paint13_linear_12971_933" x1="16771.7" y1="11392.9" x2="16913" y2="11392.9" gradientUnits="userSpaceOnUse">
<stop stop-color="#FFC444"/>
<stop offset="1" stop-color="#F36F56"/>
</linearGradient>
<linearGradient id="paint14_linear_12971_933" x1="-80683.8" y1="206520" x2="-106705" y2="184910" gradientUnits="userSpaceOnUse">
<stop stop-color="#40447E"/>
<stop offset="1" stop-color="#3C3B6B"/>
</linearGradient>
<linearGradient id="paint15_linear_12971_933" x1="-45179.3" y1="181161" x2="-69944.2" y2="170719" gradientUnits="userSpaceOnUse">
<stop stop-color="#40447E"/>
<stop offset="1" stop-color="#3C3B6B"/>
</linearGradient>
<linearGradient id="paint16_linear_12971_933" x1="-135787" y1="110933" x2="-112822" y2="184920" gradientUnits="userSpaceOnUse">
<stop stop-color="#AA80F9"/>
<stop offset="1" stop-color="#6165D7"/>
</linearGradient>
<linearGradient id="paint17_linear_12971_933" x1="-132942" y1="129917" x2="-125840" y2="103161" gradientUnits="userSpaceOnUse">
<stop stop-color="#AA80F9"/>
<stop offset="1" stop-color="#6165D7"/>
</linearGradient>
<linearGradient id="paint18_linear_12971_933" x1="-110323" y1="67599.2" x2="-100130" y2="106647" gradientUnits="userSpaceOnUse">
<stop stop-color="#AA80F9"/>
<stop offset="1" stop-color="#6165D7"/>
</linearGradient>
<linearGradient id="paint19_linear_12971_933" x1="102.874" y1="171.518" x2="98.889" y2="160.226" gradientUnits="userSpaceOnUse">
<stop stop-color="#311944"/>
<stop offset="1" stop-color="#893976"/>
</linearGradient>
<linearGradient id="paint20_linear_12971_933" x1="-40330.4" y1="13348.6" x2="-40260.4" y2="14219.2" gradientUnits="userSpaceOnUse">
<stop stop-color="#311944"/>
<stop offset="1" stop-color="#893976"/>
</linearGradient>
<linearGradient id="paint21_linear_12971_933" x1="44307.6" y1="10824.9" x2="45211.3" y2="10824.9" gradientUnits="userSpaceOnUse">
<stop stop-color="#FFC444"/>
<stop offset="1" stop-color="#F36F56"/>
</linearGradient>
<linearGradient id="paint22_linear_12971_933" x1="-127870" y1="51816" x2="-129846" y2="47195.4" gradientUnits="userSpaceOnUse">
<stop stop-color="#444B8C"/>
<stop offset="1" stop-color="#26264F"/>
</linearGradient>
<linearGradient id="paint23_linear_12971_933" x1="-133895" y1="56807.5" x2="-130067" y2="44000.8" gradientUnits="userSpaceOnUse">
<stop stop-color="#311944"/>
<stop offset="1" stop-color="#893976"/>
</linearGradient>
<linearGradient id="paint24_linear_12971_933" x1="-127875" y1="47729.1" x2="-109385" y2="47729.1" gradientUnits="userSpaceOnUse">
<stop stop-color="#311944"/>
<stop offset="1" stop-color="#893976"/>
</linearGradient>
<linearGradient id="paint25_linear_12971_933" x1="27335.9" y1="8661.45" x2="27747.2" y2="8661.45" gradientUnits="userSpaceOnUse">
<stop stop-color="#FFC444"/>
<stop offset="1" stop-color="#F36F56"/>
</linearGradient>
<linearGradient id="paint26_linear_12971_933" x1="80503.5" y1="19040.5" x2="80308.3" y2="23008.5" gradientUnits="userSpaceOnUse">
<stop stop-color="#FFC444"/>
<stop offset="1" stop-color="#F36F56"/>
</linearGradient>
<linearGradient id="paint27_linear_12971_933" x1="84.1525" y1="125.197" x2="89.7304" y2="111.031" gradientUnits="userSpaceOnUse">
<stop stop-color="#311944"/>
<stop offset="1" stop-color="#6B3976"/>
</linearGradient>
<linearGradient id="paint28_linear_12971_933" x1="38396.8" y1="10382.3" x2="39073.3" y2="10382.3" gradientUnits="userSpaceOnUse">
<stop stop-color="#FFC444"/>
<stop offset="1" stop-color="#F36F56"/>
</linearGradient>
<linearGradient id="paint29_linear_12971_933" x1="39485.5" y1="9862.11" x2="39039.3" y2="8616.52" gradientUnits="userSpaceOnUse">
<stop stop-color="#311944"/>
<stop offset="1" stop-color="#6B3976"/>
</linearGradient>
<linearGradient id="paint30_linear_12971_933" x1="8524.81" y1="1017.74" x2="8557.49" y2="1017.74" gradientUnits="userSpaceOnUse">
<stop stop-color="#FFC444"/>
<stop offset="1" stop-color="#F36F56"/>
</linearGradient>
<linearGradient id="paint31_linear_12971_933" x1="60101.7" y1="83506.6" x2="53322.5" y2="95085.7" gradientUnits="userSpaceOnUse">
<stop stop-color="#AA80F9"/>
<stop offset="1" stop-color="#6165D7"/>
</linearGradient>
<linearGradient id="paint32_linear_12971_933" x1="147.526" y1="218.189" x2="130.216" y2="238.941" gradientUnits="userSpaceOnUse">
<stop stop-color="#E38DDD"/>
<stop offset="1" stop-color="#9571F6"/>
</linearGradient>
<linearGradient id="paint33_linear_12971_933" x1="135062" y1="78017.1" x2="180912" y2="78017.1" gradientUnits="userSpaceOnUse">
<stop stop-color="#AA80F9"/>
<stop offset="1" stop-color="#6165D7"/>
</linearGradient>
</defs>
</svg>
