<svg width="411" height="405" viewBox="0 0 411 405" fill="none" xmlns="http://www.w3.org/2000/svg">
<path opacity="0.1" d="M97.764 24.342C84.1053 43.8963 100.12 75.5962 79.8528 90.2991C60.125 104.619 35.8814 81.1505 17.2948 93.4726C-10.2871 111.755 -5.2492 195.398 35.0758 247.367C47.2041 262.988 57.3377 269.076 61.8246 286.752C71.4621 324.706 37.5925 347.283 44.0335 366.055C58.5498 408.327 281.739 443.787 371.298 316.768C413.123 257.443 419.382 171.776 382.012 106.712C314.481 -10.8626 128.412 -19.5268 97.764 24.342Z" fill="#F4F7FA"/>
<path d="M158.696 314.296C141.131 302.738 183.687 198.794 222.06 130.06C253.572 73.6117 290.651 25.8824 301.357 31.3977C309.553 35.6169 299.285 69.4821 306.716 72.187C316.674 75.803 337.625 15.9209 357.988 17.9372C370.534 19.1768 381.375 43.7646 381.782 66.3622C382.514 107.133 349.149 134.135 276.566 204.953C183.552 295.701 167.738 320.247 158.696 314.296Z" fill="url(#paint0_linear_12971_821)"/>
<g style="mix-blend-mode:soft-light" opacity="0.3">
<path d="M188.645 247.126C198.428 217.804 197.585 199.095 215.382 180.137C230.927 163.578 240.528 168.308 258.862 149.166C279.627 127.486 272.365 116.138 289.759 99.3482C313.914 76.0347 337.141 88.9947 357.622 68.0388C364.095 61.4156 370.769 50.9131 374.026 33.3028C378.585 42.5382 381.572 54.7099 381.782 66.358C382.514 107.129 349.149 134.131 276.566 204.949C183.552 295.701 167.738 320.247 158.696 314.299C157.324 313.395 156.317 311.926 155.649 309.96C173.282 285.975 182.95 264.195 188.645 247.126Z" fill="white"/>
</g>
<path opacity="0.2" d="M115.348 379.728C154.227 292.843 198.291 230.724 231.352 190.256C305.744 99.2048 341.956 96.3322 357.842 97.54C379.013 99.1557 406.2 111.243 410.38 131.531C418.201 169.475 342.032 219.318 350.354 233.649C354.657 241.063 375.702 228.832 384.2 238.539C395.818 251.815 373.284 293.911 367.223 304.063C320.374 382.501 165.327 381.514 115.348 379.728Z" fill="#D8DEE8"/>
<g style="mix-blend-mode:soft-light" opacity="0.2">
<path d="M190.314 313.314C225.19 290.953 235.61 293.194 254.335 272.504C288.865 234.355 276.22 201.558 308.221 177.109C331.035 159.678 344.302 171.124 376.321 152.697C389.354 145.195 400.034 135.885 408.736 126.321C409.458 127.997 410.01 129.741 410.383 131.528C418.204 169.472 342.035 219.315 350.357 233.646C354.66 241.06 375.705 228.829 384.203 238.536C395.821 251.812 373.287 293.908 367.226 304.06C320.374 382.501 165.327 381.514 115.348 379.728C116.057 378.137 116.771 376.585 117.483 375.016C145.353 344.863 171.082 325.645 190.314 313.314Z" fill="white"/>
</g>
<path d="M104.711 299.903L106.26 310.336L77.6875 343.135L67.7896 343.67L76.3799 317.378C76.3799 317.378 81.723 313.577 69.2635 314.514L27.4487 326.151L27.657 323.491L76.7893 303.122C76.7893 303.122 93.5259 300.838 104.711 299.903Z" fill="url(#paint1_linear_12971_821)"/>
<path d="M38.945 310.693C32.2104 310.982 26.7053 306.581 26.7183 300.867L27.1739 94.8452C27.1869 89.1275 32.7123 84.8967 39.4483 85.4116L343.039 108.592C347.737 108.951 351.528 113.092 351.515 117.826L351.048 288.404C351.035 293.135 347.224 297.152 342.526 297.358L38.945 310.693Z" fill="#97A6B7"/>
<path d="M41.7424 310.731C35.0107 311.02 29.507 306.62 29.52 300.908L29.9771 94.9365C29.9887 89.2187 35.5126 84.9894 42.2457 85.5029L345.696 108.673C350.393 109.032 354.183 113.173 354.17 117.906L353.701 288.45C353.688 293.18 349.876 297.195 345.18 297.402L41.7424 310.731Z" fill="url(#paint2_linear_12971_821)"/>
<g style="mix-blend-mode:multiply" opacity="0.3">
<path d="M345.696 112.691L42.2357 90.2946C38.6384 90.0299 35.705 92.2863 35.6993 95.3383L35.342 255.469L35.2422 300.688C35.2422 303.737 38.1567 306.087 41.7511 305.938L345.193 293.386C347.711 293.282 349.751 291.14 349.758 288.601L349.865 249.611L350.228 117.626C350.235 115.086 348.206 112.876 345.696 112.691Z" fill="#D8DEE8"/>
</g>
<path d="M41.7914 288.464C40.3913 288.509 39.2529 287.58 39.2544 286.394L39.6811 95.6207C39.6811 94.4347 40.8267 93.5509 42.2268 93.6521L345.688 115.503C346.17 115.547 346.618 115.768 346.946 116.125C347.274 116.481 347.458 116.946 347.462 117.43L347.029 276.888C347.025 277.367 346.838 277.827 346.506 278.172C346.174 278.517 345.722 278.721 345.244 278.743L41.7914 288.464Z" fill="url(#paint3_linear_12971_821)"/>
<g style="mix-blend-mode:soft-light" opacity="0.6">
<path d="M314.248 284.439C289.215 268.3 306.86 224.056 278.714 200.967C250.202 177.577 209.696 204.438 189.524 180.328C174.459 162.327 192.187 141.581 177.808 124.603C155.189 97.893 96.6489 131.93 69.6628 105.315C65.8226 101.526 61.9476 95.8376 59.7534 86.8379L42.2516 85.5C35.5185 84.9865 29.9945 89.2159 29.983 94.9336L29.5259 300.905C29.5129 306.617 35.0223 311.03 41.7482 310.728L345.189 297.399C349.885 297.192 353.696 293.177 353.71 288.447V285.409C334.042 291.845 322.002 289.439 314.248 284.439Z" fill="white"/>
</g>
<path d="M296.989 299.082L297.462 303.688L323.333 319.47L327.37 316.516L312.028 302.756C312.028 302.756 309.013 301.848 313.529 300.837L328.014 300.765L326.909 299.968L308.234 297.765C308.234 297.765 301.846 298.388 296.989 299.082Z" fill="url(#paint4_linear_12971_821)"/>
<path d="M154.358 44.8985L58.2027 38.1003L57.2683 36.4109L56.8604 36.3819C52.307 36.0652 48.5999 39.3428 48.5999 43.6821V187.764C48.5999 192.115 52.3027 195.642 56.8561 195.642H58.2186L58.6381 194.788L153.842 192.52C157.999 192.52 161.965 192.3 161.965 188.164V51.1876C161.965 47.0392 158.515 45.1878 154.358 44.8985Z" fill="url(#paint5_linear_12971_821)"/>
<path d="M156.132 43.1645L58.5426 36.3822C53.9907 36.0654 50.2864 39.3358 50.2864 43.6866V187.768C50.2864 192.119 53.9907 195.647 58.5426 195.647H156.132C157.118 195.65 158.094 195.458 159.006 195.083C159.918 194.708 160.747 194.157 161.445 193.462C162.144 192.766 162.698 191.939 163.077 191.029C163.456 190.119 163.652 189.143 163.653 188.157V51.1806C163.647 47.0394 160.289 43.4523 156.132 43.1645Z" fill="url(#paint6_linear_12971_821)"/>
<g style="mix-blend-mode:soft-light">
<path d="M155.375 68.8325L59.3672 63.2854V47.7913L155.375 53.9878V68.8325Z" fill="white"/>
</g>
<g style="mix-blend-mode:soft-light">
<path d="M155.375 151.413L59.3672 149.478V142.647L155.375 144.867V151.413Z" fill="white"/>
</g>
<g style="mix-blend-mode:soft-light">
<path d="M155.375 163.261L59.3672 161.845V155.012L155.375 156.716V163.261Z" fill="white"/>
</g>
<g style="mix-blend-mode:soft-light">
<path d="M155.375 175.109L59.3672 174.211V167.379L155.375 168.564V175.109Z" fill="white"/>
</g>
<path d="M155.375 128.125L59.3672 125.171V69.3173L155.375 74.6112V128.125Z" fill="white"/>
<path d="M124.538 98.911C124.538 107.603 117.343 114.388 108.403 114.062C99.387 113.734 92.0276 106.312 92.0276 97.4978C92.0276 88.6833 99.387 81.9024 108.4 82.358C117.34 82.8093 124.538 90.2194 124.538 98.911Z" fill="url(#paint7_linear_12971_821)"/>
<path d="M116.451 97.3793L105.2 90.3091C104.254 89.7161 103.052 90.3221 103.052 91.3954V104.558C103.058 104.807 103.128 105.051 103.254 105.267C103.38 105.482 103.559 105.662 103.774 105.789C103.988 105.917 104.232 105.987 104.482 105.994C104.731 106.002 104.978 105.945 105.2 105.831L116.451 99.7384C117.363 99.2466 117.363 97.9535 116.451 97.3793Z" fill="white"/>
<path d="M336.193 222.801L289.167 219.532C286.973 219.387 285.188 220.955 285.188 223.052V263.771C285.188 265.868 286.973 267.568 289.167 267.568H336.193C337.151 267.568 338.07 267.188 338.748 266.511C339.426 265.834 339.808 264.917 339.81 263.959V226.655C339.793 225.678 339.414 224.743 338.746 224.03C338.077 223.317 337.167 222.879 336.193 222.801V222.801Z" fill="url(#paint8_linear_12971_821)"/>
<g style="mix-blend-mode:soft-light">
<path d="M335.829 259.414L289.565 258.98V255.688L335.829 256.26V259.414Z" fill="white"/>
</g>
<path d="M335.829 253.142L289.565 251.719V224.804L335.829 227.355V253.142Z" fill="white"/>
<path d="M322.698 230.765L297.82 229.752C297.618 229.743 297.416 229.773 297.226 229.843C297.036 229.912 296.861 230.018 296.713 230.156C296.566 230.29 296.449 230.454 296.368 230.635C296.287 230.817 296.244 231.014 296.243 231.213L296.068 246.865C296.065 247.131 296.117 247.395 296.221 247.64C296.325 247.885 296.479 248.106 296.673 248.288C297.041 248.642 297.531 248.843 298.042 248.848H298.129L322.554 248.641C323.045 248.626 323.511 248.422 323.855 248.072C324.2 247.722 324.396 247.252 324.402 246.761L324.568 232.746C324.575 232.238 324.383 231.747 324.034 231.377C323.685 231.008 323.206 230.788 322.698 230.765ZM322.801 233.079L313.927 240.776C313.355 241.274 312.618 241.541 311.86 241.526C311.22 241.513 310.6 241.303 310.082 240.926L298.337 232.422C298.291 232.389 298.251 232.347 298.221 232.299C298.191 232.25 298.17 232.196 298.161 232.139C298.152 232.083 298.154 232.025 298.167 231.97C298.18 231.914 298.204 231.861 298.238 231.815C298.309 231.723 298.414 231.662 298.53 231.646C298.645 231.63 298.763 231.659 298.857 231.728L310.59 240.236C310.995 240.535 311.49 240.688 311.993 240.668C312.496 240.649 312.978 240.459 313.359 240.129L322.243 232.434C322.329 232.363 322.439 232.329 322.55 232.338C322.661 232.347 322.764 232.4 322.837 232.484C322.91 232.568 322.947 232.678 322.94 232.789C322.934 232.9 322.884 233.004 322.801 233.079V233.079Z" fill="url(#paint9_linear_12971_821)"/>
<path d="M272.166 74.8441L185.491 68.8284C181.441 68.5478 178.213 71.4479 178.281 75.3084L179.601 150.267C179.669 154.126 183.011 157.256 187.049 157.256H273.618C274.488 157.261 275.35 157.093 276.153 156.759C276.956 156.426 277.685 155.936 278.296 155.316C278.906 154.697 279.386 153.961 279.708 153.153C280.029 152.345 280.186 151.48 280.167 150.611L278.958 81.9518C278.893 78.2823 275.857 75.1016 272.166 74.8441Z" fill="#D8DEE8"/>
<path d="M272.478 130.701L187.266 128.08L186.394 78.5337L271.642 83.2302L272.478 130.701Z" fill="white"/>
<path d="M237.094 97.4446C237.001 97.4447 236.912 97.4102 236.844 97.3478C236.775 97.2855 236.732 97.1998 236.724 97.1076C236.397 93.6796 235.277 90.4222 233.576 87.9358C232.068 85.7329 230.271 84.4181 228.771 84.4181C223.305 84.4282 222.163 96.9775 222.151 97.1033C222.141 97.2003 222.093 97.2894 222.017 97.3514C221.942 97.4135 221.845 97.4436 221.748 97.4353C221.651 97.4269 221.561 97.3809 221.497 97.3069C221.433 97.233 221.401 97.137 221.407 97.0397C221.455 96.4943 222.625 83.6833 228.77 83.6718H228.777C230.549 83.6718 232.525 85.0719 234.197 87.5135C235.97 90.1026 237.133 93.4843 237.472 97.0368C237.476 97.0855 237.471 97.1347 237.457 97.1816C237.443 97.2284 237.419 97.272 237.388 97.3097C237.357 97.3475 237.319 97.3787 237.275 97.4016C237.232 97.4246 237.185 97.4387 237.136 97.4432L237.094 97.4446Z" fill="url(#paint10_linear_12971_821)"/>
<path d="M214.324 123.272L221.519 126.914L225.878 113.536L218.7 95.6089L216.663 96.1079L213.572 121.866C213.54 122.149 213.594 122.435 213.729 122.686C213.863 122.938 214.071 123.142 214.324 123.272V123.272Z" fill="url(#paint11_linear_12971_821)"/>
<path style="mix-blend-mode:multiply" opacity="0.3" d="M225.879 113.536L218.7 95.6089L217.498 95.8982C217.361 97.8294 217.368 99.7681 217.518 101.698C218 107.804 219.6 109.509 218.82 113.763C218.176 117.305 216.769 117.786 216.892 120.169C217.026 122.764 218.836 124.942 220.988 126.646L221.519 126.915L225.879 113.536Z" fill="url(#paint12_linear_12971_821)"/>
<path d="M218.696 95.6015H245.522L254.402 124.264L221.519 126.914L218.696 95.6015Z" fill="url(#paint13_linear_12971_821)"/>
<path d="M228.051 98.1142C228.051 98.3205 227.99 98.5221 227.875 98.6936C227.761 98.8651 227.598 98.9988 227.407 99.0777C227.217 99.1567 227.007 99.1773 226.805 99.1371C226.602 99.0968 226.417 98.9975 226.271 98.8517C226.125 98.7058 226.026 98.52 225.985 98.3177C225.945 98.1154 225.966 97.9057 226.045 97.7151C226.124 97.5246 226.257 97.3617 226.429 97.2471C226.6 97.1325 226.802 97.0714 227.008 97.0714C227.145 97.0712 227.281 97.098 227.408 97.1503C227.534 97.2027 227.649 97.2795 227.746 97.3764C227.843 97.4733 227.92 97.5883 227.972 97.7149C228.024 97.8415 228.051 97.9772 228.051 98.1142V98.1142Z" fill="url(#paint14_linear_12971_821)"/>
<path d="M227.007 98.0578C226.923 98.0577 226.841 98.029 226.775 97.9765C226.709 97.924 226.663 97.8507 226.644 97.7685C226.567 97.4445 224.804 89.764 227.29 85.9946C227.617 85.4781 228.05 85.0367 228.56 84.6994C229.07 84.3621 229.645 84.1365 230.248 84.0376C236.672 82.9065 240.628 96.7054 240.793 97.2927C240.819 97.3886 240.807 97.4912 240.758 97.578C240.709 97.6648 240.628 97.7287 240.532 97.7555C240.436 97.7824 240.334 97.77 240.247 97.7212C240.16 97.6724 240.096 97.5911 240.069 97.4951C240.032 97.3577 236.138 83.7541 230.378 84.7738C229.875 84.8546 229.396 85.0425 228.971 85.3247C228.547 85.6069 228.188 85.9769 227.92 86.4097C225.605 89.913 227.36 97.527 227.377 97.6036C227.4 97.6999 227.383 97.8012 227.331 97.8853C227.279 97.9694 227.196 98.0293 227.099 98.052C227.069 98.0573 227.038 98.0592 227.007 98.0578Z" fill="url(#paint15_linear_12971_821)"/>
<g style="mix-blend-mode:multiply" opacity="0.3">
<path style="mix-blend-mode:multiply" opacity="0.3" d="M245.522 95.6089H232.215C231.559 96.2771 231.093 97.0466 231.048 97.9087C230.84 101.959 240.16 103.297 241.062 108.855C241.71 112.865 237.719 117.49 234.158 119.559C230.406 121.728 227.864 120.631 225.335 123.042C224.219 124.101 223.541 125.426 223.136 126.803L254.411 124.283L245.522 95.6089Z" fill="url(#paint16_linear_12971_821)"/>
</g>
<path d="M241.652 98.0172C241.652 98.2235 241.591 98.4251 241.476 98.5966C241.361 98.7681 241.199 98.9018 241.008 98.9807C240.817 99.0597 240.608 99.0803 240.405 99.0401C240.203 98.9998 240.017 98.9005 239.871 98.7547C239.726 98.6088 239.626 98.423 239.586 98.2207C239.546 98.0184 239.566 97.8087 239.645 97.6182C239.724 97.4276 239.858 97.2647 240.029 97.1501C240.201 97.0355 240.403 96.9744 240.609 96.9744C240.885 96.9744 241.151 97.0842 241.346 97.2798C241.542 97.4754 241.652 97.7407 241.652 98.0172V98.0172Z" fill="url(#paint17_linear_12971_821)"/>
<path d="M56.5654 199.536L131.694 200.285C134.897 200.317 137.521 203.054 137.564 206.398L138.404 271.435C138.448 274.788 135.89 277.522 132.682 277.542L57.4564 278.003C55.7651 278.008 54.1405 277.345 52.9361 276.157C51.7317 274.97 51.045 273.355 51.0256 271.664L50.2864 205.832C50.2732 205.003 50.4264 204.18 50.7371 203.411C51.0477 202.643 51.5095 201.944 52.0949 201.357C52.6804 200.77 53.3777 200.306 54.1456 199.994C54.9135 199.681 55.7363 199.525 56.5654 199.536Z" fill="#D8DEE8"/>
<path d="M57.8035 252.708L131.772 252.013L131.218 208.709L57.29 207.555L57.8035 252.708Z" fill="white"/>
<path d="M103.14 237.988C104.393 235.959 105.158 233.667 105.375 231.293C105.501 229.657 105.215 228.016 104.545 226.519C103.473 224.04 101.542 222.572 99.6776 221.155C98.2861 220.096 96.9713 219.096 96.0615 217.725L95.8995 217.479C95.3615 216.674 94.754 215.761 94.6773 215.02C94.6397 214.662 94.4715 214.329 94.2048 214.087C93.9381 213.844 93.5915 213.708 93.2309 213.704C92.8751 213.711 92.5359 213.856 92.2851 214.108C92.0343 214.361 91.8916 214.701 91.8872 215.057L91.0887 240.586C89.8601 239.742 88.4229 239.253 86.9346 239.171C83.0857 238.951 79.8702 241.341 79.7704 244.503C79.6706 247.665 82.7269 250.413 86.5773 250.633C90.4277 250.853 93.6431 248.463 93.7415 245.301L94.2622 228.602C96.3349 229.545 99.7036 231.835 100.495 236.78C100.323 237.042 100.135 237.293 99.9322 237.533C99.6774 237.812 99.5414 238.18 99.553 238.558C99.5646 238.936 99.7229 239.294 99.9944 239.558C100.124 239.69 100.279 239.794 100.45 239.865C100.621 239.935 100.805 239.97 100.99 239.968C101.175 239.965 101.358 239.925 101.527 239.849C101.696 239.774 101.848 239.665 101.973 239.529C102.371 239.087 102.73 238.612 103.045 238.108C103.08 238.071 103.112 238.031 103.14 237.988Z" fill="url(#paint18_linear_12971_821)"/>
<path d="M298.253 158.605L159.767 151.356L158.648 149.331L158.158 149.296C152.704 148.917 148.265 152.835 148.265 158.05L145.415 268.547C145.415 273.761 149.854 277.988 155.31 277.988H156.937L157.442 276.964L294.782 270.813C299.763 270.813 304.516 270.55 304.516 265.593L307.366 166.127C307.366 161.17 303.233 158.951 298.253 158.605Z" fill="#D8DEE8"/>
<path d="M297.53 274.568C298.711 274.571 299.88 274.341 300.971 273.892C302.063 273.442 303.055 272.783 303.891 271.95C304.728 271.117 305.392 270.128 305.846 269.038C306.3 267.949 306.535 266.781 306.537 265.6L309.391 166.127C309.391 161.17 305.367 156.869 300.385 156.525L160.18 149.293C154.726 148.914 150.287 152.833 150.287 158.047L147.437 268.544C147.437 273.758 151.876 277.985 157.332 277.985L297.53 274.568Z" fill="white"/>
<path d="M296.194 263.133L160.229 266.559C158.103 266.613 156.435 264.771 156.509 262.447L159.664 162.578C159.738 160.254 161.521 158.442 163.642 158.529L299.316 164.282C301.088 164.358 302.467 166.135 302.4 168.251L299.531 259.217C299.46 261.335 297.964 263.088 296.194 263.133Z" fill="#D8DEE8"/>
<g style="mix-blend-mode:soft-light" opacity="0.48">
<path d="M266.935 237.701C255.509 230.541 246.091 238.502 237.519 229.815C232.322 224.55 235.069 220.931 228.716 213.127C221.679 204.483 216.841 207.052 209.744 199.241C200.776 189.359 205.636 182.224 197.863 175.067C188.432 166.389 177.743 173.518 168.768 165.195C164.896 161.605 162.869 156.554 161.894 151.237L152.87 150.818C151.288 150.744 149.961 152.04 149.909 153.711L146.193 271.959C146.141 273.631 147.385 274.949 148.97 274.904L303.191 270.52C303.948 270.498 304.638 270.064 305.083 269.408C293.835 268.45 287.041 264.137 282.748 259.806C274.348 251.33 276.098 243.441 266.935 237.701Z" fill="white"/>
</g>
<path d="M305.237 146.089L304.741 142.116C304.741 142.116 300.738 137.936 300.835 135.937C300.938 133.783 301.093 130.812 302.397 130.52C303.974 130.167 306.332 133.812 307.353 136.625C307.925 138.216 308.209 139.896 308.19 141.587L309.637 146.888L305.237 146.089Z" fill="white"/>
<path d="M302.423 141.209C302.423 141.209 300.119 139.63 299.74 136.761C299.361 133.893 300.449 136.835 302.633 138.046L304.812 139.258C304.812 139.258 307.143 140.451 306.641 141.351C306.139 142.25 302.423 141.209 302.423 141.209Z" fill="white"/>
<path d="M302.528 147.089C304.755 144.679 306.896 143.711 308.85 143.565C317.517 142.92 327.935 158.029 328.647 172C328.698 173.001 329.289 188.611 317.378 198.582C299.995 213.134 268.252 205.413 262.871 192.705C261.099 188.51 261.595 182.386 261.682 181.317C262.109 176.193 263.779 171.25 266.548 166.918C280.279 171.053 297.267 173.628 302.452 167.002C306.316 162.063 307.918 154.811 302.528 147.089Z" fill="url(#paint19_linear_12971_821)"/>
<path d="M189.81 167.016C216.733 159.331 245.337 159.867 271.953 168.555C272.9 174.908 273.847 181.261 274.794 187.615C274.878 195.952 274.491 204.287 273.637 212.58C272.598 222.656 271.886 222.776 269.786 236.97C266.363 260.113 267.298 266.241 262.459 268.814C259.311 270.489 258.25 270.246 242.527 267.974C231.984 266.451 227.529 266.069 222.118 267.604C214.748 269.692 211.27 271.302 208.3 269.837C205.455 268.43 205.241 263.512 205.161 254.95C205.038 241.743 205.352 232.785 205.404 229.576C205.639 214.849 202.205 203.437 197.808 188.822C195.575 181.402 192.905 174.12 189.81 167.016V167.016Z" fill="url(#paint20_linear_12971_821)"/>
<path d="M239.566 147.505C239.352 150.395 238.841 153.254 238.043 156.039C237.392 158.29 237.014 158.851 236.556 159.291C235.866 159.952 234.862 160.465 229.374 161.242C226.387 161.666 226.013 161.609 225.923 161.887C225.489 163.248 233.058 168.787 241.4 168.461C246.504 168.262 251.335 165.888 251.182 164.374C251.029 162.859 245.92 163.153 244.65 160.298C243.768 158.313 245.168 155.757 246.742 153.682C245.612 151.085 240.696 150.107 239.566 147.505Z" fill="url(#paint21_linear_12971_821)"/>
<path d="M249.653 151.007C251.285 149.918 252.222 147.365 251.464 145.291C250.81 143.506 249.108 142.703 248.088 142.222C245.135 140.827 240.836 140.762 238.556 143.071C237.205 144.439 237.785 148.437 237.849 149.146C237.923 149.943 238.397 150.371 238.734 151.069C239.203 152.038 239.927 153.573 241.096 156.132C241.504 155.491 241.968 154.888 242.482 154.328C243.152 153.599 243.914 152.961 244.748 152.428C246.998 151.051 248.111 152.037 249.653 151.007Z" fill="url(#paint22_linear_12971_821)"/>
<path d="M239.053 153.611C239.053 153.611 239.98 157.542 244.086 158.656C247.762 159.654 250.951 151.93 249.217 149.468C248.638 148.648 247.181 147.892 245.816 147.809C245.01 147.76 244.659 147.975 243.344 147.87C242.131 147.773 241.856 147.543 241.425 147.706C240.885 147.91 240.289 148.658 240.215 151.208C239.758 150.294 239.022 149.752 238.347 149.823C238.113 149.859 237.895 149.959 237.715 150.112C236.906 150.848 237.359 152.287 239.053 153.611Z" fill="url(#paint23_linear_12971_821)"/>
<path d="M241.422 147.178C241.552 147.364 240.808 147.818 240.466 148.701C239.802 150.417 240.9 153.123 242.676 153.926C243.727 154.4 244.241 153.862 246.099 154.288C247.005 154.499 247.872 154.85 248.668 155.329C248.589 157.432 247.417 159.156 245.814 159.596C244.09 160.069 242.488 158.873 241.822 158.382C241.375 158.05 239.942 156.988 239.588 155.258C239.219 153.456 240.383 152.841 239.721 151.482C239.388 150.796 238.796 150.346 238.484 149.133C238.416 148.872 238.367 148.606 238.339 148.338C239.598 147.692 241.232 146.909 241.422 147.178Z" fill="url(#paint24_linear_12971_821)"/>
<path d="M247.124 155.592C247.124 155.592 246.212 155.724 244.895 155.193C244.83 155.167 244.75 155.161 244.733 155.193C244.659 155.307 245.333 156.161 246.201 156.206C246.817 156.242 247.432 155.869 247.4 155.709C247.387 155.649 247.257 155.613 247.124 155.592Z" fill="url(#paint25_linear_12971_821)"/>
<path d="M198.477 229.259L202.29 229.227C202.29 229.227 206.567 225.987 208.459 226.29C210.351 226.592 213.148 228.025 213.485 228.315C213.822 228.604 212.39 230.06 211.011 229.848C209.631 229.635 206.516 230.227 205.926 231.403C205.336 232.579 202.915 233.191 202.529 232.467L197.382 233.228L198.477 229.259Z" fill="white"/>
<path d="M199.669 228.008C199.84 231.093 199.091 233.148 197.915 234.527C192.684 240.635 175.67 237.246 165.776 228.277C158.453 221.639 154.784 211.688 155.2 202.946C156.023 185.885 172.628 169.903 196.727 165.237C199.94 175.816 203.153 186.396 206.366 196.975C191.613 196.51 185.195 206.638 186.278 214.508C187.085 220.372 190.928 226.32 199.669 228.008Z" fill="url(#paint26_linear_12971_821)"/>
<path style="mix-blend-mode:multiply" opacity="0.3" d="M256.566 260.891C248.911 257.275 249.169 250.535 242.012 247.384C231.8 242.889 220.086 251.683 218.383 249.014C216.613 246.237 230.513 238.62 228.954 230.399C227.715 223.864 218.156 224.567 213.332 215.477C208.757 206.855 213.692 199.309 209.499 196.191C207.996 195.073 205.304 194.533 200.09 196.521C203.327 207.699 205.587 217.528 205.4 229.576C205.348 232.785 205.034 241.743 205.157 254.95C205.236 263.512 205.446 268.43 208.296 269.837C211.262 271.302 214.744 269.692 222.113 267.604C227.525 266.069 231.993 264.448 242.534 265.971C258.257 268.243 259.313 270.489 262.454 268.814C264.504 267.725 265.516 265.99 266.264 262.595C263.095 262.789 259.748 262.395 256.566 260.891Z" fill="url(#paint27_linear_12971_821)"/>
<path d="M258.08 249.653C258.08 257.227 251.811 263.137 244.021 262.854C236.168 262.564 229.756 256.106 229.756 248.423C229.756 240.739 236.168 234.826 244.021 235.23C251.811 235.623 258.08 242.086 258.08 249.653Z" fill="#F4F7FA"/>
<path d="M236.115 252.049C236.228 252.107 236.533 252.049 237.029 251.887C237.174 251.849 237.369 251.792 237.623 251.716C237.878 251.641 238.111 251.572 238.321 251.515C238.53 251.459 238.731 251.402 238.919 251.355C238.953 251.355 239.054 251.333 239.222 251.303C239.359 251.279 239.493 251.246 239.625 251.203C239.719 251.174 239.805 251.124 239.877 251.058C239.971 250.963 240.022 250.778 240.022 250.501C240.028 250.224 240.012 249.947 239.972 249.673C239.933 249.403 239.911 249.131 239.907 248.858C239.907 248.591 239.946 248.416 240.032 248.33C240.09 248.279 240.156 248.237 240.227 248.206C240.314 248.165 240.383 248.138 240.432 248.121C240.482 248.103 240.577 248.082 240.701 248.051L240.917 247.998C242.806 247.421 244.824 247.421 246.713 247.998L246.93 248.051C247.06 248.082 247.15 248.105 247.199 248.122C247.248 248.139 247.317 248.167 247.404 248.206C247.476 248.237 247.541 248.279 247.599 248.33C247.683 248.416 247.725 248.591 247.722 248.858C247.72 249.131 247.699 249.403 247.659 249.673C247.619 249.947 247.602 250.224 247.61 250.501C247.61 250.778 247.667 250.963 247.754 251.058C247.826 251.124 247.912 251.174 248.006 251.203C248.138 251.246 248.273 251.279 248.409 251.303C248.577 251.333 248.678 251.35 248.712 251.355C248.9 251.402 249.099 251.456 249.309 251.515C249.519 251.575 249.753 251.641 250.008 251.716C250.262 251.792 250.46 251.849 250.602 251.887C251.098 252.052 251.404 252.107 251.516 252.049C251.581 252.018 251.639 251.975 251.687 251.922C251.852 251.748 251.998 251.557 252.121 251.352C252.252 251.151 252.364 250.939 252.458 250.718C252.594 250.383 252.556 249.844 252.344 249.103C252.133 248.295 251.657 247.582 250.991 247.078C250.833 246.96 250.667 246.854 250.495 246.758C250.301 246.65 250.155 246.571 250.061 246.525C249.967 246.479 249.784 246.395 249.523 246.276C249.263 246.158 249.105 246.085 249.049 246.058C248.464 245.776 247.851 245.557 247.22 245.406C244.978 244.943 242.665 244.943 240.422 245.406C239.791 245.557 239.178 245.775 238.594 246.057C238.538 246.085 238.379 246.159 238.12 246.276C237.861 246.394 237.686 246.477 237.58 246.525C237.474 246.573 237.336 246.65 237.146 246.758C236.974 246.853 236.808 246.959 236.65 247.076C236.51 247.183 236.377 247.299 236.252 247.423C235.798 247.894 235.469 248.472 235.296 249.103C235.084 249.844 235.046 250.383 235.183 250.718C235.276 250.94 235.389 251.152 235.52 251.353C235.644 251.558 235.79 251.749 235.954 251.923C236 251.975 236.054 252.017 236.115 252.049V252.049Z" fill="url(#paint28_linear_12971_821)"/>
<path d="M225.469 249.276C225.469 256.849 219.2 262.761 211.41 262.478C203.557 262.188 197.145 255.73 197.145 248.045C197.145 240.36 203.557 234.449 211.41 234.854C219.2 235.247 225.469 241.698 225.469 249.276Z" fill="url(#paint29_linear_12971_821)"/>
<path d="M206.35 250.117C207.161 249.306 207.161 247.991 206.35 247.18C205.538 246.369 204.223 246.369 203.412 247.18C202.601 247.991 202.601 249.306 203.412 250.117C204.223 250.928 205.538 250.928 206.35 250.117Z" fill="#F4F7FA"/>
<path d="M211.154 250.847C212.301 250.847 213.231 249.917 213.231 248.77C213.231 247.623 212.301 246.693 211.154 246.693C210.007 246.693 209.077 247.623 209.077 248.77C209.077 249.917 210.007 250.847 211.154 250.847Z" fill="#F4F7FA"/>
<path d="M217.427 250.847C218.574 250.847 219.504 249.917 219.504 248.77C219.504 247.623 218.574 246.693 217.427 246.693C216.28 246.693 215.35 247.623 215.35 248.77C215.35 249.917 216.28 250.847 217.427 250.847Z" fill="#F4F7FA"/>
<path d="M105.601 343.641C146.007 331.503 187.665 328.957 228.071 316.819C229.857 316.284 231.712 316.017 233.576 316.026C237.626 316.045 245.068 316.428 252.319 318.63C255.668 319.642 257.849 316.476 260.648 317.432C260.937 317.532 262.732 318.17 263.516 319.717C264.406 321.469 263.661 323.699 261.572 325.35C237.947 336.209 213.182 346.937 187.278 357.534C176.437 361.952 165.691 366.215 155.04 370.324C152.488 371.991 145.858 375.82 136.874 375.63C128.47 375.451 122.729 371.854 117.467 368.556C112.839 365.663 107.977 362.601 105.595 357.068C103.697 352.655 101.027 345.014 105.601 343.641Z" fill="url(#paint30_linear_12971_821)"/>
<path d="M103.395 343.93L226.82 310.164C228.238 309.775 229.705 309.6 231.174 309.643C234.978 309.757 242.766 310.327 250.345 312.942C255.655 314.775 259.564 316.188 262.139 317.137C263.653 317.698 263.675 319.451 262.172 320.03C224.25 334.602 184.065 349.174 146.303 363.746C143.448 364.823 140.32 364.938 137.393 364.073C131.632 362.375 124.575 359.694 117.353 355.395C112.213 352.356 107.451 348.721 103.165 344.564C102.942 344.347 103.067 344.02 103.395 343.93Z" fill="white"/>
<path d="M138.776 340.2V341.661C138.782 341.742 138.765 341.823 138.727 341.895C138.582 342.193 138.121 342.481 137.385 342.694L133.644 343.776C132.169 344.21 130.192 344.159 129.222 343.68L125.306 341.735C124.912 341.544 124.757 341.301 124.821 341.064L124.811 339.7L126.03 340.216C126.127 340.184 126.227 340.153 126.334 340.126L130.037 339.13C131.454 338.751 133.309 338.794 134.246 339.225L137.811 340.877L138.125 340.2H138.776Z" fill="white"/>
<path d="M149.603 346.819C149.603 346.797 149.603 346.776 149.603 346.754V345.293H149.16L148.366 345.77L144.485 343.972C143.439 343.488 141.439 343.446 139.987 343.877L136.242 344.988C136.154 345.014 136.07 345.041 135.989 345.07V344.51L134.807 344.684L134.797 346.073C134.797 346.308 134.988 346.537 135.375 346.728L139.786 348.913C140.875 349.454 143.015 349.492 144.531 349.012L148.292 347.8C149.109 347.538 149.555 347.175 149.594 346.817L149.603 346.819Z" fill="white"/>
<path d="M162.593 342.629L162.561 341.361L161.847 340.928L161.196 341.642L157.481 340.074C156.407 339.621 154.444 339.585 153.077 339.993L149.908 340.933L149.849 340.952L149.759 340.332L148.622 340.476V341.824C148.581 342.086 148.787 342.348 149.26 342.561L153.618 344.512C154.739 345.014 156.829 345.051 158.246 344.594L161.42 343.573C162.217 343.324 162.612 342.971 162.593 342.629Z" fill="white"/>
<path d="M151.688 337.886V336.669L150.942 336.525L150.417 337.103L147.161 335.731C146.195 335.323 144.374 335.286 143.031 335.647L140.062 336.439L140.169 336.295L139.59 335.611L138.513 335.926L138.549 337.271C138.439 337.533 138.599 337.798 139.07 338.009L142.958 339.745C143.961 340.194 145.898 340.233 147.297 339.83L150.463 338.914C151.379 338.644 151.808 338.249 151.688 337.886Z" fill="white"/>
<path d="M160.74 351.494C159.084 350.59 156.911 349.674 155.857 349.242C154.684 348.698 152.522 348.663 151.035 349.149L147.264 350.394L145.914 350.05C145.872 350.296 145.77 350.975 145.914 351.531C145.939 351.677 146 351.813 146.091 351.929C146.233 352.081 146.403 352.203 146.593 352.289L151.605 354.774C152.837 355.385 155.158 355.428 156.708 354.87L160.484 353.504C160.642 353.444 161.706 353.013 161.695 352.424V350.966L160.74 351.494Z" fill="white"/>
<path d="M174.663 347.695L174.679 346.376L173.391 346.785L168.883 344.885C167.683 344.379 165.573 344.344 164.175 344.805L160.993 345.854V345.142L159.801 345.421V346.79C159.771 347.079 160.011 347.38 160.545 347.62L165.473 349.826C166.733 350.39 168.992 350.426 170.437 349.905L173.605 348.761C174.218 348.538 174.568 348.252 174.652 347.958C174.679 347.873 174.683 347.782 174.663 347.695V347.695Z" fill="white"/>
<path d="M174.309 337.483H173.187L172.851 337.954L169.235 336.55C168.137 336.125 166.218 336.093 164.916 336.48L162.487 337.203L162.298 336.721H161.1V338.082C161.065 338.341 161.29 338.6 161.797 338.806L166.073 340.554C167.22 341.023 169.264 341.056 170.603 340.624L173.255 339.772C173.917 339.559 174.267 339.273 174.3 338.986L174.309 337.483Z" fill="white"/>
<path d="M186.336 343.655V342.196L184.871 342.315L184.759 342.575L180.604 340.962C179.383 340.489 177.319 340.459 176.001 340.896L173.694 341.658L172.281 341.181V342.659C172.291 342.931 172.556 343.203 173.091 343.421L177.905 345.39C179.186 345.915 181.391 345.945 182.745 345.456L185.377 344.504C186.032 344.276 186.346 343.961 186.336 343.655Z" fill="white"/>
<path d="M163.432 333.266H162.098L161.918 333.713L158.896 332.54C157.905 332.155 156.116 332.123 154.846 332.466L152.362 333.133C152.342 332.939 152.3 332.789 152.218 332.789C151.983 332.789 150.952 332.589 150.952 332.589L150.97 333.93C150.902 334.173 151.09 334.419 151.565 334.614L155.396 336.181C156.428 336.603 158.327 336.636 159.647 336.255L162.304 335.485C163.046 335.271 163.42 334.97 163.428 334.675H163.442L163.432 333.266Z" fill="white"/>
<path d="M174.112 330.267H172.821L172.565 330.701L169.517 329.605C168.504 329.242 166.747 329.213 165.528 329.54L163.775 330.011C163.79 329.906 163.788 329.832 163.746 329.832C163.601 329.832 162.155 329.447 162.155 329.447V330.894H162.168C162.157 331.111 162.36 331.328 162.817 331.498L166.665 332.945C167.719 333.343 169.582 333.372 170.836 333.009L173.068 332.362C173.791 332.151 174.135 331.856 174.089 331.566H174.101L174.112 330.267Z" fill="white"/>
<path d="M214.161 332.376L214.173 331.245L213.532 330.936L213.488 331.08C212.262 329.696 209.418 328.211 205.313 326.957C197.46 324.559 187.564 323.812 182.723 325.205C182.061 325.377 181.432 325.653 180.857 326.022L180.785 325.733L179.959 325.912V327.375C179.878 328.917 182.386 330.837 187.265 332.53C195.424 335.359 206.664 336.36 211.785 334.647C213.292 334.144 214.05 333.473 214.154 332.713V332.699C214.169 332.592 214.171 332.484 214.161 332.376V332.376ZM202.361 331.59C200.365 332.225 196.085 331.863 192.888 330.798C189.765 329.757 188.898 328.445 190.863 327.854C192.829 327.262 196.883 327.59 200.032 328.588C203.258 329.609 204.337 330.96 202.355 331.59H202.361Z" fill="white"/>
<path d="M184.932 335.527H184.942V334.063H183.361C183.317 334.063 183.205 334.32 183.129 334.497L179.926 333.34C178.809 332.938 176.926 332.906 175.688 333.277L174.175 333.727L174.112 333.438L172.408 333.266V334.75H172.423C172.442 334.98 172.677 335.208 173.166 335.394L177.339 336.969C178.507 337.403 180.507 337.436 181.777 337.028L183.994 336.315C184.658 336.105 184.965 335.815 184.932 335.527Z" fill="white"/>
<path d="M196.756 338.473L195.566 338.568L195.421 338.92L191.227 337.41C189.99 336.966 187.969 336.941 186.719 337.353L185.013 337.918C184.913 337.819 184.816 337.734 184.774 337.734C184.674 337.734 183.549 337.484 183.549 337.484V338.813C183.504 339.102 183.783 339.406 184.407 339.64L188.972 341.364C190.273 341.853 192.418 341.878 193.694 341.418L195.887 340.627C196.444 340.426 196.717 340.167 196.737 339.903H196.75L196.756 338.473Z" fill="white"/>
<path d="M208.678 319.989L203.426 321.531L203.164 321.122H201.395L201.415 322.448C201.305 322.766 201.678 323.103 202.537 323.358L204.662 323.986C206.175 324.432 208.557 324.454 209.956 324.027L216.273 322.099V320.64L208.678 319.989Z" fill="white"/>
<path d="M224.782 319.191V319.136L224.759 317.793C224.759 317.793 223.424 317.87 223.346 317.793C223.268 317.717 223.057 318.083 222.99 318.198L221.322 317.764C219.825 317.377 217.586 317.371 216.303 317.747L210.274 318.058V319.516L217.88 321.605L223.942 319.756C224.461 319.597 224.731 319.397 224.773 319.189L224.782 319.191Z" fill="white"/>
<path d="M238.392 322.743L238.376 321.353L236.351 320.865L236.42 321.677L234.54 321.189C232.91 320.767 230.556 320.755 229.263 321.162L223.188 321.607V323.067L231.494 325.35L237.596 323.353C238.118 323.183 238.374 322.967 238.389 322.743H238.392Z" fill="white"/>
<path d="M221.575 323.566L217.453 324.859L217.527 324.657L216.063 324.091L214.298 324.959L214.274 326.358C214.327 326.661 214.768 326.971 215.586 327.213L217.919 327.902C219.576 328.393 222.08 328.417 223.492 327.956L229.866 325.872V324.412L221.575 323.566Z" fill="white"/>
<path d="M251.288 319.834L251.243 318.533L250.929 318.141L250.061 318.667V318.913C249.844 318.839 249.601 318.768 249.33 318.703C247.49 318.269 245.015 318.207 243.438 318.54L243.149 317.95H242.012V319.319C242.008 319.35 242.008 319.38 242.012 319.411C242.047 319.784 242.683 320.179 243.875 320.475C245.959 320.994 248.907 321.012 250.423 320.51C251.002 320.32 251.275 320.086 251.291 319.84L251.288 319.834Z" fill="white"/>
<path d="M205.313 325.499C197.46 323.099 187.564 322.354 182.723 323.747C177.766 325.173 179.577 328.407 187.266 331.075C195.425 333.905 206.666 334.906 211.787 333.194C216.773 331.522 213.623 328.037 205.313 325.499ZM192.888 329.337C189.766 328.297 188.898 326.985 190.863 326.394C192.829 325.802 196.883 326.131 200.032 327.129C203.252 328.15 204.331 329.499 202.355 330.13C200.379 330.761 196.085 330.403 192.888 329.337Z" fill="url(#paint31_linear_12971_821)"/>
<path d="M250.421 319.046C248.906 319.548 245.958 319.53 243.873 319.011C241.814 318.498 241.4 317.694 242.913 317.21C244.426 316.727 247.271 316.745 249.332 317.239C251.419 317.74 251.923 318.55 250.421 319.046Z" fill="url(#paint32_linear_12971_821)"/>
<path d="M223.94 318.301L217.878 320.15L210.273 318.061L216.302 316.291C217.585 315.913 219.824 315.921 221.321 316.308L223.476 316.865C225.009 317.263 225.228 317.908 223.94 318.301Z" fill="url(#paint33_linear_12971_821)"/>
<path d="M208.678 318.528L216.273 320.64L209.955 322.567C208.558 322.993 206.175 322.973 204.661 322.526L202.537 321.897C201.062 321.463 201.01 320.78 202.393 320.372L208.678 318.528Z" fill="url(#paint34_linear_12971_821)"/>
<path d="M237.593 321.894L231.491 323.89L223.184 321.607L229.259 319.703C230.552 319.298 232.905 319.308 234.535 319.73L236.893 320.34C238.572 320.773 238.889 321.47 237.593 321.894Z" fill="url(#paint35_linear_12971_821)"/>
<path d="M221.575 322.12L229.873 324.425L223.499 326.51C222.087 326.971 219.584 326.944 217.926 326.456L215.593 325.766C213.979 325.289 213.828 324.548 215.233 324.109L221.575 322.12Z" fill="url(#paint36_linear_12971_821)"/>
<path d="M169.521 328.141L173.379 329.528C174.467 329.92 174.339 330.541 173.078 330.905L170.846 331.552C169.592 331.914 167.729 331.885 166.675 331.487L162.827 330.04C161.78 329.644 161.998 329.028 163.297 328.681L165.532 328.08C166.747 327.749 168.509 327.777 169.521 328.141Z" fill="url(#paint37_linear_12971_821)"/>
<path d="M179.926 331.886L184.103 333.387C185.26 333.805 185.224 334.463 183.993 334.86L181.775 335.573C180.506 335.981 178.505 335.953 177.338 335.514L173.165 333.938C172.045 333.516 172.184 332.864 173.454 332.485L175.683 331.824C176.926 331.456 178.81 331.484 179.926 331.886Z" fill="url(#paint38_linear_12971_821)"/>
<path d="M195.893 339.169L193.7 339.96C192.424 340.42 190.275 340.394 188.977 339.905L184.419 338.182C183.22 337.729 183.262 337.037 184.515 336.626L186.728 335.894C187.978 335.48 189.998 335.506 191.235 335.95L195.794 337.591C197.034 338.039 197.087 338.738 195.893 339.169Z" fill="url(#paint39_linear_12971_821)"/>
<path d="M158.896 331.087L162.743 332.58C163.812 332.995 163.611 333.649 162.294 334.026L159.636 334.796C158.317 335.176 156.418 335.143 155.385 334.721L151.555 333.154C150.531 332.736 150.823 332.087 152.186 331.721L154.839 331.008C156.116 330.664 157.905 330.695 158.896 331.087Z" fill="url(#paint40_linear_12971_821)"/>
<path d="M173.26 338.311L170.609 339.164C169.27 339.598 167.226 339.564 166.079 339.095L161.803 337.345C160.705 336.896 160.918 336.206 162.26 335.809L164.916 335.02C166.218 334.634 168.137 334.665 169.235 335.091L173.522 336.753C174.668 337.199 174.559 337.894 173.26 338.311Z" fill="url(#paint41_linear_12971_821)"/>
<path d="M185.384 343.05L182.752 344.001C181.398 344.49 179.195 344.46 177.912 343.935L173.098 341.966C171.917 341.483 172.04 340.747 173.356 340.311L176.006 339.435C177.323 339.001 179.387 339.03 180.608 339.503L185.425 341.372C186.659 341.85 186.649 342.592 185.384 343.05Z" fill="url(#paint42_linear_12971_821)"/>
<path d="M147.161 334.27L151.078 335.922C152.122 336.363 151.849 337.054 150.453 337.459L147.287 338.375C145.894 338.778 143.96 338.739 142.948 338.289L139.06 336.554C138.065 336.108 138.442 335.421 139.875 335.036L143.026 334.19C144.374 333.817 146.195 333.855 147.161 334.27Z" fill="url(#paint43_linear_12971_821)"/>
<path d="M157.481 338.609L161.862 340.457C162.986 340.932 162.8 341.671 161.428 342.113L158.255 343.135C156.833 343.592 154.743 343.554 153.626 343.051L149.268 341.101C148.198 340.621 148.496 339.889 149.915 339.466L153.084 338.526C154.448 338.126 156.406 338.162 157.481 338.609Z" fill="url(#paint44_linear_12971_821)"/>
<path d="M173.612 347.302L170.444 348.446C168.998 348.968 166.74 348.932 165.48 348.366L160.553 346.161C159.396 345.643 159.603 344.859 161.002 344.395L164.184 343.346C165.581 342.883 167.692 342.912 168.892 343.424L173.835 345.51C175.044 346.023 174.957 346.816 173.612 347.302Z" fill="url(#paint45_linear_12971_821)"/>
<path d="M134.24 337.764L138.203 339.601C139.216 340.071 138.854 340.807 137.379 341.234L133.641 342.316C132.164 342.743 130.187 342.699 129.217 342.218L125.3 340.275C124.341 339.801 124.815 339.07 126.33 338.664L130.034 337.669C131.45 337.288 133.304 337.33 134.24 337.764Z" fill="url(#paint46_linear_12971_821)"/>
<path d="M144.485 342.514L148.936 344.578C150.034 345.086 149.756 345.88 148.295 346.346L144.534 347.557C143.018 348.044 140.878 348.001 139.789 347.46L135.378 345.274C134.341 344.759 134.739 343.972 136.246 343.538L139.991 342.428C141.439 341.986 143.439 342.027 144.485 342.514Z" fill="url(#paint47_linear_12971_821)"/>
<path d="M160.481 352.045L156.705 353.41C155.156 353.969 152.834 353.925 151.602 353.315L146.59 350.83C145.463 350.272 145.771 349.428 147.264 348.935L151.035 347.688C152.522 347.198 154.684 347.238 155.857 347.782L160.902 350.121C162.097 350.674 161.919 351.526 160.481 352.045Z" fill="url(#paint48_linear_12971_821)"/>
<defs>
<linearGradient id="paint0_linear_12971_821" x1="312.886" y1="3.78056" x2="203.854" y2="432.198" gradientUnits="userSpaceOnUse">
<stop stop-color="#FF9085"/>
<stop offset="1" stop-color="#FB6FBB"/>
</linearGradient>
<linearGradient id="paint1_linear_12971_821" x1="27.4487" y1="321.786" x2="106.26" y2="321.786" gradientUnits="userSpaceOnUse">
<stop stop-color="#444B8C"/>
<stop offset="1" stop-color="#26264F"/>
</linearGradient>
<linearGradient id="paint2_linear_12971_821" x1="66287.2" y1="308631" x2="794966" y2="308631" gradientUnits="userSpaceOnUse">
<stop stop-color="#444B8C"/>
<stop offset="1" stop-color="#26264F"/>
</linearGradient>
<linearGradient id="paint3_linear_12971_821" x1="347.457" y1="191.055" x2="39.2558" y2="191.055" gradientUnits="userSpaceOnUse">
<stop stop-color="#FFC444"/>
<stop offset="1" stop-color="#F36F56"/>
</linearGradient>
<linearGradient id="paint4_linear_12971_821" x1="63998.2" y1="46608.8" x2="70652.6" y2="46608.8" gradientUnits="userSpaceOnUse">
<stop stop-color="#444B8C"/>
<stop offset="1" stop-color="#26264F"/>
</linearGradient>
<linearGradient id="paint5_linear_12971_821" x1="143.97" y1="40.1369" x2="11.7795" y2="298.071" gradientUnits="userSpaceOnUse">
<stop stop-color="#311944"/>
<stop offset="1" stop-color="#893976"/>
</linearGradient>
<linearGradient id="paint6_linear_12971_821" x1="146.322" y1="39.1492" x2="13.2577" y2="298.789" gradientUnits="userSpaceOnUse">
<stop stop-color="#E38DDD"/>
<stop offset="1" stop-color="#9571F6"/>
</linearGradient>
<linearGradient id="paint7_linear_12971_821" x1="20776.2" y1="21630.3" x2="28082.5" y2="21630.3" gradientUnits="userSpaceOnUse">
<stop stop-color="#FF9085"/>
<stop offset="1" stop-color="#FB6FBB"/>
</linearGradient>
<linearGradient id="paint8_linear_12971_821" x1="325.737" y1="217.687" x2="280.319" y2="306.309" gradientUnits="userSpaceOnUse">
<stop stop-color="#AA80F9"/>
<stop offset="1" stop-color="#6165D7"/>
</linearGradient>
<linearGradient id="paint9_linear_12971_821" x1="57884.4" y1="27667.9" x2="55163.1" y2="31155.8" gradientUnits="userSpaceOnUse">
<stop stop-color="#E38DDD"/>
<stop offset="1" stop-color="#9571F6"/>
</linearGradient>
<linearGradient id="paint10_linear_12971_821" x1="23296.3" y1="8497.26" x2="23643.7" y2="8647.74" gradientUnits="userSpaceOnUse">
<stop stop-color="#444B8C"/>
<stop offset="1" stop-color="#26264F"/>
</linearGradient>
<linearGradient id="paint11_linear_12971_821" x1="17125.1" y1="21647.9" x2="19181.9" y2="23004.7" gradientUnits="userSpaceOnUse">
<stop stop-color="#AA80F9"/>
<stop offset="1" stop-color="#6165D7"/>
</linearGradient>
<linearGradient id="paint12_linear_12971_821" x1="12658.5" y1="21467.3" x2="14408.3" y2="22310.2" gradientUnits="userSpaceOnUse">
<stop stop-color="#AA80F9"/>
<stop offset="1" stop-color="#6165D7"/>
</linearGradient>
<linearGradient id="paint13_linear_12971_821" x1="53136.4" y1="22982.6" x2="58821.8" y2="27977.6" gradientUnits="userSpaceOnUse">
<stop stop-color="#AA80F9"/>
<stop offset="1" stop-color="#6165D7"/>
</linearGradient>
<linearGradient id="paint14_linear_12971_821" x1="3317.81" y1="1504.36" x2="3323.86" y2="1506.61" gradientUnits="userSpaceOnUse">
<stop stop-color="#444B8C"/>
<stop offset="1" stop-color="#26264F"/>
</linearGradient>
<linearGradient id="paint15_linear_12971_821" x1="22743.3" y1="8141.06" x2="22985.3" y2="9766.72" gradientUnits="userSpaceOnUse">
<stop stop-color="#444B8C"/>
<stop offset="1" stop-color="#26264F"/>
</linearGradient>
<linearGradient id="paint16_linear_12971_821" x1="46646.1" y1="22803.4" x2="52172" y2="27072" gradientUnits="userSpaceOnUse">
<stop stop-color="#AA80F9"/>
<stop offset="1" stop-color="#6165D7"/>
</linearGradient>
<linearGradient id="paint17_linear_12971_821" x1="3527.68" y1="1502.85" x2="3533.75" y2="1505.1" gradientUnits="userSpaceOnUse">
<stop stop-color="#444B8C"/>
<stop offset="1" stop-color="#26264F"/>
</linearGradient>
<linearGradient id="paint18_linear_12971_821" x1="14218.5" y1="59510.4" x2="18762.4" y2="59510.4" gradientUnits="userSpaceOnUse">
<stop stop-color="#FFC444"/>
<stop offset="1" stop-color="#F36F56"/>
</linearGradient>
<linearGradient id="paint19_linear_12971_821" x1="156213" y1="-78788.6" x2="101569" y2="-57929.2" gradientUnits="userSpaceOnUse">
<stop stop-color="#FF9085"/>
<stop offset="1" stop-color="#FB6FBB"/>
</linearGradient>
<linearGradient id="paint20_linear_12971_821" x1="-297242" y1="184879" x2="-247211" y2="101622" gradientUnits="userSpaceOnUse">
<stop stop-color="#FF9085"/>
<stop offset="1" stop-color="#FB6FBB"/>
</linearGradient>
<linearGradient id="paint21_linear_12971_821" x1="-76518.1" y1="19738.3" x2="-73800.3" y2="15105" gradientUnits="userSpaceOnUse">
<stop stop-color="#FFC444"/>
<stop offset="1" stop-color="#F36F56"/>
</linearGradient>
<linearGradient id="paint22_linear_12971_821" x1="-55549.3" y1="1877.89" x2="-53839.6" y2="-109.295" gradientUnits="userSpaceOnUse">
<stop stop-color="#444B8C"/>
<stop offset="1" stop-color="#26264F"/>
</linearGradient>
<linearGradient id="paint23_linear_12971_821" x1="-40454.6" y1="206.435" x2="-41165" y2="2782.41" gradientUnits="userSpaceOnUse">
<stop stop-color="#FFC444"/>
<stop offset="1" stop-color="#F36F56"/>
</linearGradient>
<linearGradient id="paint24_linear_12971_821" x1="-41152.9" y1="3588.59" x2="-39659.3" y2="2025.22" gradientUnits="userSpaceOnUse">
<stop stop-color="#444B8C"/>
<stop offset="1" stop-color="#26264F"/>
</linearGradient>
<linearGradient id="paint25_linear_12971_821" x1="247.02" y1="156.337" x2="245.212" y2="160.313" gradientUnits="userSpaceOnUse">
<stop stop-color="#FFC444"/>
<stop offset="1" stop-color="#F36F56"/>
</linearGradient>
<linearGradient id="paint26_linear_12971_821" x1="-193764" y1="113990" x2="-158973" y2="61388.3" gradientUnits="userSpaceOnUse">
<stop stop-color="#FF9085"/>
<stop offset="1" stop-color="#FB6FBB"/>
</linearGradient>
<linearGradient id="paint27_linear_12971_821" x1="-226085" y1="129437" x2="-193463" y2="68630.6" gradientUnits="userSpaceOnUse">
<stop stop-color="#FF9085"/>
<stop offset="1" stop-color="#FB6FBB"/>
</linearGradient>
<linearGradient id="paint28_linear_12971_821" x1="26088.7" y1="13692.5" x2="28035.5" y2="9145.61" gradientUnits="userSpaceOnUse">
<stop stop-color="#FF9085"/>
<stop offset="1" stop-color="#FB6FBB"/>
</linearGradient>
<linearGradient id="paint29_linear_12971_821" x1="29326.7" y1="52520.3" x2="49539.4" y2="44305" gradientUnits="userSpaceOnUse">
<stop stop-color="#E38DDD"/>
<stop offset="1" stop-color="#9571F6"/>
</linearGradient>
<linearGradient id="paint30_linear_12971_821" x1="114699" y1="142842" x2="293482" y2="142842" gradientUnits="userSpaceOnUse">
<stop stop-color="#444B8C"/>
<stop offset="1" stop-color="#26264F"/>
</linearGradient>
<linearGradient id="paint31_linear_12971_821" x1="29882.9" y1="27333.7" x2="48632.6" y2="5198.92" gradientUnits="userSpaceOnUse">
<stop stop-color="#444B8C"/>
<stop offset="1" stop-color="#26264F"/>
</linearGradient>
<linearGradient id="paint32_linear_12971_821" x1="8479.68" y1="6724.99" x2="12680.4" y2="936.47" gradientUnits="userSpaceOnUse">
<stop stop-color="#444B8C"/>
<stop offset="1" stop-color="#26264F"/>
</linearGradient>
<linearGradient id="paint33_linear_12971_821" x1="12712.9" y1="10419.4" x2="19591.2" y2="1277.29" gradientUnits="userSpaceOnUse">
<stop stop-color="#444B8C"/>
<stop offset="1" stop-color="#26264F"/>
</linearGradient>
<linearGradient id="paint34_linear_12971_821" x1="13003.3" y1="10915.8" x2="20275.3" y2="1479.2" gradientUnits="userSpaceOnUse">
<stop stop-color="#444B8C"/>
<stop offset="1" stop-color="#26264F"/>
</linearGradient>
<linearGradient id="paint35_linear_12971_821" x1="13627.9" y1="11503.3" x2="21148.6" y2="1836.42" gradientUnits="userSpaceOnUse">
<stop stop-color="#444B8C"/>
<stop offset="1" stop-color="#26264F"/>
</linearGradient>
<linearGradient id="paint36_linear_12971_821" x1="13949" y1="12080.1" x2="21912.5" y2="2103.49" gradientUnits="userSpaceOnUse">
<stop stop-color="#444B8C"/>
<stop offset="1" stop-color="#26264F"/>
</linearGradient>
<linearGradient id="paint37_linear_12971_821" x1="10272.6" y1="9823.62" x2="17056" y2="2056.14" gradientUnits="userSpaceOnUse">
<stop stop-color="#444B8C"/>
<stop offset="1" stop-color="#26264F"/>
</linearGradient>
<linearGradient id="paint38_linear_12971_821" x1="11003.9" y1="10848.4" x2="18400.7" y2="2667.44" gradientUnits="userSpaceOnUse">
<stop stop-color="#444B8C"/>
<stop offset="1" stop-color="#26264F"/>
</linearGradient>
<linearGradient id="paint39_linear_12971_821" x1="11855.2" y1="12056.7" x2="19951.7" y2="3412.04" gradientUnits="userSpaceOnUse">
<stop stop-color="#444B8C"/>
<stop offset="1" stop-color="#26264F"/>
</linearGradient>
<linearGradient id="paint40_linear_12971_821" x1="10683" y1="10601.5" x2="18072" y2="2451.23" gradientUnits="userSpaceOnUse">
<stop stop-color="#444B8C"/>
<stop offset="1" stop-color="#26264F"/>
</linearGradient>
<linearGradient id="paint41_linear_12971_821" x1="11553.2" y1="11864.7" x2="19704.7" y2="3214.37" gradientUnits="userSpaceOnUse">
<stop stop-color="#444B8C"/>
<stop offset="1" stop-color="#26264F"/>
</linearGradient>
<linearGradient id="paint42_linear_12971_821" x1="12581.5" y1="13380.4" x2="21614.4" y2="4163.87" gradientUnits="userSpaceOnUse">
<stop stop-color="#444B8C"/>
<stop offset="1" stop-color="#26264F"/>
</linearGradient>
<linearGradient id="paint43_linear_12971_821" x1="11242.4" y1="11600.1" x2="19397.2" y2="2952.44" gradientUnits="userSpaceOnUse">
<stop stop-color="#444B8C"/>
<stop offset="1" stop-color="#26264F"/>
</linearGradient>
<linearGradient id="paint44_linear_12971_821" x1="12166.3" y1="13031" x2="21173.3" y2="3870.17" gradientUnits="userSpaceOnUse">
<stop stop-color="#444B8C"/>
<stop offset="1" stop-color="#26264F"/>
</linearGradient>
<linearGradient id="paint45_linear_12971_821" x1="13283.2" y1="14807.5" x2="23309.9" y2="5051.95" gradientUnits="userSpaceOnUse">
<stop stop-color="#444B8C"/>
<stop offset="1" stop-color="#26264F"/>
</linearGradient>
<linearGradient id="paint46_linear_12971_821" x1="11828.9" y1="12706.1" x2="20826.2" y2="3543.42" gradientUnits="userSpaceOnUse">
<stop stop-color="#444B8C"/>
<stop offset="1" stop-color="#26264F"/>
</linearGradient>
<linearGradient id="paint47_linear_12971_821" x1="12838.8" y1="14387.2" x2="22826.3" y2="4681.39" gradientUnits="userSpaceOnUse">
<stop stop-color="#444B8C"/>
<stop offset="1" stop-color="#26264F"/>
</linearGradient>
<linearGradient id="paint48_linear_12971_821" x1="14047" y1="16440.5" x2="25186.5" y2="6121.08" gradientUnits="userSpaceOnUse">
<stop stop-color="#444B8C"/>
<stop offset="1" stop-color="#26264F"/>
</linearGradient>
</defs>
</svg>
